<svg width="1016" height="758" viewBox="0 0 1016 758" fill="none" xmlns="http://www.w3.org/2000/svg">
<path d="M25.575 521.31C27.7383 521.713 29.5167 522.795 30.91 524.555C32.3033 526.315 33 528.332 33 530.605C33 532.658 32.4867 534.473 31.46 536.05C30.47 537.59 29.0217 538.8 27.115 539.68C25.2083 540.56 22.9533 541 20.35 541H3.795V502.61H19.635C22.2383 502.61 24.475 503.032 26.345 503.875C28.2517 504.718 29.6817 505.892 30.635 507.395C31.625 508.898 32.12 510.603 32.12 512.51C32.12 514.747 31.515 516.617 30.305 518.12C29.1317 519.623 27.555 520.687 25.575 521.31ZM11.495 518.45H18.535C20.3683 518.45 21.78 518.047 22.77 517.24C23.76 516.397 24.255 515.205 24.255 513.665C24.255 512.125 23.76 510.933 22.77 510.09C21.78 509.247 20.3683 508.825 18.535 508.825H11.495V518.45ZM19.25 534.73C21.12 534.73 22.5683 534.29 23.595 533.41C24.6583 532.53 25.19 531.283 25.19 529.67C25.19 528.02 24.64 526.737 23.54 525.82C22.44 524.867 20.955 524.39 19.085 524.39H11.495V534.73H19.25ZM65.8118 525.105C65.8118 526.205 65.7385 527.195 65.5918 528.075H43.3168C43.5001 530.275 44.2701 531.998 45.6268 533.245C46.9835 534.492 48.6518 535.115 50.6318 535.115C53.4918 535.115 55.5268 533.887 56.7368 531.43H65.0418C64.1618 534.363 62.4751 536.783 59.9818 538.69C57.4885 540.56 54.4268 541.495 50.7968 541.495C47.8635 541.495 45.2235 540.853 42.8768 539.57C40.5668 538.25 38.7518 536.398 37.4318 534.015C36.1485 531.632 35.5068 528.882 35.5068 525.765C35.5068 522.612 36.1485 519.843 37.4318 517.46C38.7151 515.077 40.5118 513.243 42.8218 511.96C45.1318 510.677 47.7901 510.035 50.7968 510.035C53.6935 510.035 56.2785 510.658 58.5518 511.905C60.8618 513.152 62.6401 514.93 63.8868 517.24C65.1701 519.513 65.8118 522.135 65.8118 525.105ZM57.8368 522.905C57.8001 520.925 57.0851 519.348 55.6918 518.175C54.2985 516.965 52.5935 516.36 50.5768 516.36C48.6701 516.36 47.0568 516.947 45.7368 518.12C44.4535 519.257 43.6651 520.852 43.3718 522.905H57.8368ZM78.7471 516.855V531.595C78.7471 532.622 78.9854 533.373 79.4621 533.85C79.9754 534.29 80.8188 534.51 81.9921 534.51H85.5671V541H80.7271C74.2371 541 70.9921 537.847 70.9921 531.54V516.855H67.3621V510.53H70.9921V502.995H78.7471V510.53H85.5671V516.855H78.7471ZM98.4204 516.855V531.595C98.4204 532.622 98.6587 533.373 99.1354 533.85C99.6487 534.29 100.492 534.51 101.665 534.51H105.24V541H100.4C93.9104 541 90.6654 537.847 90.6654 531.54V516.855H87.0354V510.53H90.6654V502.995H98.4204V510.53H105.24V516.855H98.4204ZM137.454 525.105C137.454 526.205 137.38 527.195 137.234 528.075H114.959C115.142 530.275 115.912 531.998 117.269 533.245C118.625 534.492 120.294 535.115 122.274 535.115C125.134 535.115 127.169 533.887 128.379 531.43H136.684C135.804 534.363 134.117 536.783 131.624 538.69C129.13 540.56 126.069 541.495 122.439 541.495C119.505 541.495 116.865 540.853 114.519 539.57C112.209 538.25 110.394 536.398 109.074 534.015C107.79 531.632 107.149 528.882 107.149 525.765C107.149 522.612 107.79 519.843 109.074 517.46C110.357 515.077 112.154 513.243 114.464 511.96C116.774 510.677 119.432 510.035 122.439 510.035C125.335 510.035 127.92 510.658 130.194 511.905C132.504 513.152 134.282 514.93 135.529 517.24C136.812 519.513 137.454 522.135 137.454 525.105ZM129.479 522.905C129.442 520.925 128.727 519.348 127.334 518.175C125.94 516.965 124.235 516.36 122.219 516.36C120.312 516.36 118.699 516.947 117.379 518.12C116.095 519.257 115.307 520.852 115.014 522.905H129.479ZM149.124 515.26C150.114 513.647 151.397 512.382 152.974 511.465C154.587 510.548 156.421 510.09 158.474 510.09V518.175H156.439C154.019 518.175 152.186 518.743 150.939 519.88C149.729 521.017 149.124 522.997 149.124 525.82V541H141.424V510.53H149.124V515.26ZM181.166 502.61V541H173.466V502.61H181.166ZM204.008 510.09C207.638 510.09 210.572 511.245 212.808 513.555C215.045 515.828 216.163 519.018 216.163 523.125V541H208.463V524.17C208.463 521.75 207.858 519.898 206.648 518.615C205.438 517.295 203.788 516.635 201.698 516.635C199.572 516.635 197.885 517.295 196.638 518.615C195.428 519.898 194.823 521.75 194.823 524.17V541H187.123V510.53H194.823V514.325C195.85 513.005 197.152 511.978 198.728 511.245C200.342 510.475 202.102 510.09 204.008 510.09ZM233.496 541.495C231.002 541.495 228.766 541.055 226.786 540.175C224.806 539.258 223.229 538.03 222.056 536.49C220.919 534.95 220.296 533.245 220.186 531.375H227.941C228.087 532.548 228.656 533.52 229.646 534.29C230.672 535.06 231.937 535.445 233.441 535.445C234.907 535.445 236.044 535.152 236.851 534.565C237.694 533.978 238.116 533.227 238.116 532.31C238.116 531.32 237.602 530.587 236.576 530.11C235.586 529.597 233.991 529.047 231.791 528.46C229.517 527.91 227.647 527.342 226.181 526.755C224.751 526.168 223.504 525.27 222.441 524.06C221.414 522.85 220.901 521.218 220.901 519.165C220.901 517.478 221.377 515.938 222.331 514.545C223.321 513.152 224.714 512.052 226.511 511.245C228.344 510.438 230.489 510.035 232.946 510.035C236.576 510.035 239.472 510.952 241.636 512.785C243.799 514.582 244.991 517.02 245.211 520.1H237.841C237.731 518.89 237.217 517.937 236.301 517.24C235.421 516.507 234.229 516.14 232.726 516.14C231.332 516.14 230.251 516.397 229.481 516.91C228.747 517.423 228.381 518.138 228.381 519.055C228.381 520.082 228.894 520.87 229.921 521.42C230.947 521.933 232.542 522.465 234.706 523.015C236.906 523.565 238.721 524.133 240.151 524.72C241.581 525.307 242.809 526.223 243.836 527.47C244.899 528.68 245.449 530.293 245.486 532.31C245.486 534.07 244.991 535.647 244.001 537.04C243.047 538.433 241.654 539.533 239.821 540.34C238.024 541.11 235.916 541.495 233.496 541.495ZM254.061 506.9C252.705 506.9 251.568 506.478 250.651 505.635C249.771 504.755 249.331 503.673 249.331 502.39C249.331 501.107 249.771 500.043 250.651 499.2C251.568 498.32 252.705 497.88 254.061 497.88C255.418 497.88 256.536 498.32 257.416 499.2C258.333 500.043 258.791 501.107 258.791 502.39C258.791 503.673 258.333 504.755 257.416 505.635C256.536 506.478 255.418 506.9 254.061 506.9ZM257.856 510.53V541H250.156V510.53H257.856ZM275.749 510.035C278.022 510.035 280.021 510.493 281.744 511.41C283.467 512.29 284.824 513.445 285.814 514.875V510.53H293.569V541.22C293.569 544.043 293.001 546.555 291.864 548.755C290.727 550.992 289.022 552.752 286.749 554.035C284.476 555.355 281.726 556.015 278.499 556.015C274.172 556.015 270.616 555.007 267.829 552.99C265.079 550.973 263.521 548.223 263.154 544.74H270.799C271.202 546.133 272.064 547.233 273.384 548.04C274.741 548.883 276.372 549.305 278.279 549.305C280.516 549.305 282.331 548.627 283.724 547.27C285.117 545.95 285.814 543.933 285.814 541.22V536.49C284.824 537.92 283.449 539.112 281.689 540.065C279.966 541.018 277.986 541.495 275.749 541.495C273.182 541.495 270.836 540.835 268.709 539.515C266.582 538.195 264.896 536.343 263.649 533.96C262.439 531.54 261.834 528.772 261.834 525.655C261.834 522.575 262.439 519.843 263.649 517.46C264.896 515.077 266.564 513.243 268.654 511.96C270.781 510.677 273.146 510.035 275.749 510.035ZM285.814 525.765C285.814 523.895 285.447 522.3 284.714 520.98C283.981 519.623 282.991 518.597 281.744 517.9C280.497 517.167 279.159 516.8 277.729 516.8C276.299 516.8 274.979 517.148 273.769 517.845C272.559 518.542 271.569 519.568 270.799 520.925C270.066 522.245 269.699 523.822 269.699 525.655C269.699 527.488 270.066 529.102 270.799 530.495C271.569 531.852 272.559 532.897 273.769 533.63C275.016 534.363 276.336 534.73 277.729 534.73C279.159 534.73 280.497 534.382 281.744 533.685C282.991 532.952 283.981 531.925 284.714 530.605C285.447 529.248 285.814 527.635 285.814 525.765ZM316.599 510.09C318.909 510.09 320.963 510.603 322.759 511.63C324.556 512.62 325.949 514.105 326.939 516.085C327.966 518.028 328.479 520.375 328.479 523.125V541H320.779V524.17C320.779 521.75 320.174 519.898 318.964 518.615C317.754 517.295 316.104 516.635 314.014 516.635C311.888 516.635 310.201 517.295 308.954 518.615C307.744 519.898 307.139 521.75 307.139 524.17V541H299.439V500.3H307.139V514.325C308.129 513.005 309.449 511.978 311.099 511.245C312.749 510.475 314.583 510.09 316.599 510.09ZM343.117 516.855V531.595C343.117 532.622 343.355 533.373 343.832 533.85C344.345 534.29 345.188 534.51 346.362 534.51H349.937V541H345.097C338.607 541 335.362 537.847 335.362 531.54V516.855H331.732V510.53H335.362V502.995H343.117V510.53H349.937V516.855H343.117ZM365.485 541.495C362.992 541.495 360.755 541.055 358.775 540.175C356.795 539.258 355.218 538.03 354.045 536.49C352.908 534.95 352.285 533.245 352.175 531.375H359.93C360.077 532.548 360.645 533.52 361.635 534.29C362.662 535.06 363.927 535.445 365.43 535.445C366.897 535.445 368.033 535.152 368.84 534.565C369.683 533.978 370.105 533.227 370.105 532.31C370.105 531.32 369.592 530.587 368.565 530.11C367.575 529.597 365.98 529.047 363.78 528.46C361.507 527.91 359.637 527.342 358.17 526.755C356.74 526.168 355.493 525.27 354.43 524.06C353.403 522.85 352.89 521.218 352.89 519.165C352.89 517.478 353.367 515.938 354.32 514.545C355.31 513.152 356.703 512.052 358.5 511.245C360.333 510.438 362.478 510.035 364.935 510.035C368.565 510.035 371.462 510.952 373.625 512.785C375.788 514.582 376.98 517.02 377.2 520.1H369.83C369.72 518.89 369.207 517.937 368.29 517.24C367.41 516.507 366.218 516.14 364.715 516.14C363.322 516.14 362.24 516.397 361.47 516.91C360.737 517.423 360.37 518.138 360.37 519.055C360.37 520.082 360.883 520.87 361.91 521.42C362.937 521.933 364.532 522.465 366.695 523.015C368.895 523.565 370.71 524.133 372.14 524.72C373.57 525.307 374.798 526.223 375.825 527.47C376.888 528.68 377.438 530.293 377.475 532.31C377.475 534.07 376.98 535.647 375.99 537.04C375.037 538.433 373.643 539.533 371.81 540.34C370.013 541.11 367.905 541.495 365.485 541.495Z" fill="black"/>
<path d="M514.92 502.61V508.825H504.69V541H496.99V508.825H486.76V502.61H514.92ZM547.213 525.105C547.213 526.205 547.14 527.195 546.993 528.075H524.718C524.901 530.275 525.671 531.998 527.028 533.245C528.385 534.492 530.053 535.115 532.033 535.115C534.893 535.115 536.928 533.887 538.138 531.43H546.443C545.563 534.363 543.876 536.783 541.383 538.69C538.89 540.56 535.828 541.495 532.198 541.495C529.265 541.495 526.625 540.853 524.278 539.57C521.968 538.25 520.153 536.398 518.833 534.015C517.55 531.632 516.908 528.882 516.908 525.765C516.908 522.612 517.55 519.843 518.833 517.46C520.116 515.077 521.913 513.243 524.223 511.96C526.533 510.677 529.191 510.035 532.198 510.035C535.095 510.035 537.68 510.658 539.953 511.905C542.263 513.152 544.041 514.93 545.288 517.24C546.572 519.513 547.213 522.135 547.213 525.105ZM539.238 522.905C539.201 520.925 538.486 519.348 537.093 518.175C535.7 516.965 533.995 516.36 531.978 516.36C530.071 516.36 528.458 516.947 527.138 518.12C525.855 519.257 525.066 520.852 524.773 522.905H539.238ZM549.203 525.655C549.203 522.575 549.808 519.843 551.018 517.46C552.265 515.077 553.933 513.243 556.023 511.96C558.15 510.677 560.515 510.035 563.118 510.035C565.392 510.035 567.372 510.493 569.058 511.41C570.782 512.327 572.157 513.482 573.183 514.875V510.53H580.938V541H573.183V536.545C572.193 537.975 570.818 539.167 569.058 540.12C567.335 541.037 565.337 541.495 563.063 541.495C560.497 541.495 558.15 540.835 556.023 539.515C553.933 538.195 552.265 536.343 551.018 533.96C549.808 531.54 549.203 528.772 549.203 525.655ZM573.183 525.765C573.183 523.895 572.817 522.3 572.083 520.98C571.35 519.623 570.36 518.597 569.113 517.9C567.867 517.167 566.528 516.8 565.098 516.8C563.668 516.8 562.348 517.148 561.138 517.845C559.928 518.542 558.938 519.568 558.168 520.925C557.435 522.245 557.068 523.822 557.068 525.655C557.068 527.488 557.435 529.102 558.168 530.495C558.938 531.852 559.928 532.897 561.138 533.63C562.385 534.363 563.705 534.73 565.098 534.73C566.528 534.73 567.867 534.382 569.113 533.685C570.36 532.952 571.35 531.925 572.083 530.605C572.817 529.248 573.183 527.635 573.183 525.765ZM624.649 510.09C628.389 510.09 631.396 511.245 633.669 513.555C635.979 515.828 637.134 519.018 637.134 523.125V541H629.434V524.17C629.434 521.787 628.829 519.972 627.619 518.725C626.409 517.442 624.759 516.8 622.669 516.8C620.579 516.8 618.911 517.442 617.664 518.725C616.454 519.972 615.849 521.787 615.849 524.17V541H608.149V524.17C608.149 521.787 607.544 519.972 606.334 518.725C605.124 517.442 603.474 516.8 601.384 516.8C599.257 516.8 597.571 517.442 596.324 518.725C595.114 519.972 594.509 521.787 594.509 524.17V541H586.809V510.53H594.509V514.215C595.499 512.932 596.764 511.923 598.304 511.19C599.881 510.457 601.604 510.09 603.474 510.09C605.857 510.09 607.984 510.603 609.854 511.63C611.724 512.62 613.172 514.05 614.199 515.92C615.189 514.16 616.619 512.748 618.489 511.685C620.396 510.622 622.449 510.09 624.649 510.09ZM652.376 521.75C652.376 517.973 653.22 514.6 654.906 511.63C656.63 508.623 658.958 506.295 661.891 504.645C664.861 502.958 668.18 502.115 671.846 502.115C676.136 502.115 679.895 503.215 683.121 505.415C686.348 507.615 688.603 510.658 689.886 514.545H681.031C680.151 512.712 678.905 511.337 677.291 510.42C675.715 509.503 673.881 509.045 671.791 509.045C669.555 509.045 667.556 509.577 665.796 510.64C664.073 511.667 662.716 513.133 661.726 515.04C660.773 516.947 660.296 519.183 660.296 521.75C660.296 524.28 660.773 526.517 661.726 528.46C662.716 530.367 664.073 531.852 665.796 532.915C667.556 533.942 669.555 534.455 671.791 534.455C673.881 534.455 675.715 533.997 677.291 533.08C678.905 532.127 680.151 530.733 681.031 528.9H689.886C688.603 532.823 686.348 535.885 683.121 538.085C679.931 540.248 676.173 541.33 671.846 541.33C668.18 541.33 664.861 540.505 661.891 538.855C658.958 537.168 656.63 534.84 654.906 531.87C653.22 528.9 652.376 525.527 652.376 521.75ZM708.343 541.495C705.41 541.495 702.77 540.853 700.423 539.57C698.076 538.25 696.225 536.398 694.868 534.015C693.548 531.632 692.888 528.882 692.888 525.765C692.888 522.648 693.566 519.898 694.923 517.515C696.316 515.132 698.205 513.298 700.588 512.015C702.971 510.695 705.63 510.035 708.563 510.035C711.496 510.035 714.155 510.695 716.538 512.015C718.921 513.298 720.791 515.132 722.148 517.515C723.541 519.898 724.238 522.648 724.238 525.765C724.238 528.882 723.523 531.632 722.093 534.015C720.7 536.398 718.793 538.25 716.373 539.57C713.99 540.853 711.313 541.495 708.343 541.495ZM708.343 534.785C709.736 534.785 711.038 534.455 712.248 533.795C713.495 533.098 714.485 532.072 715.218 530.715C715.951 529.358 716.318 527.708 716.318 525.765C716.318 522.868 715.548 520.65 714.008 519.11C712.505 517.533 710.653 516.745 708.453 516.745C706.253 516.745 704.401 517.533 702.898 519.11C701.431 520.65 700.698 522.868 700.698 525.765C700.698 528.662 701.413 530.898 702.843 532.475C704.31 534.015 706.143 534.785 708.343 534.785ZM735.936 500.3V541H728.236V500.3H735.936ZM749.594 500.3V541H741.894V500.3H749.594ZM753.571 525.655C753.571 522.575 754.176 519.843 755.386 517.46C756.633 515.077 758.301 513.243 760.391 511.96C762.518 510.677 764.883 510.035 767.486 510.035C769.76 510.035 771.74 510.493 773.426 511.41C775.15 512.327 776.525 513.482 777.551 514.875V510.53H785.306V541H777.551V536.545C776.561 537.975 775.186 539.167 773.426 540.12C771.703 541.037 769.705 541.495 767.431 541.495C764.865 541.495 762.518 540.835 760.391 539.515C758.301 538.195 756.633 536.343 755.386 533.96C754.176 531.54 753.571 528.772 753.571 525.655ZM777.551 525.765C777.551 523.895 777.185 522.3 776.451 520.98C775.718 519.623 774.728 518.597 773.481 517.9C772.235 517.167 770.896 516.8 769.466 516.8C768.036 516.8 766.716 517.148 765.506 517.845C764.296 518.542 763.306 519.568 762.536 520.925C761.803 522.245 761.436 523.822 761.436 525.655C761.436 527.488 761.803 529.102 762.536 530.495C763.306 531.852 764.296 532.897 765.506 533.63C766.753 534.363 768.073 534.73 769.466 534.73C770.896 534.73 772.235 534.382 773.481 533.685C774.728 532.952 775.718 531.925 776.451 530.605C777.185 529.248 777.551 527.635 777.551 525.765ZM798.877 514.985C799.867 513.518 801.224 512.327 802.947 511.41C804.707 510.493 806.705 510.035 808.942 510.035C811.545 510.035 813.892 510.677 815.982 511.96C818.109 513.243 819.777 515.077 820.987 517.46C822.234 519.807 822.857 522.538 822.857 525.655C822.857 528.772 822.234 531.54 820.987 533.96C819.777 536.343 818.109 538.195 815.982 539.515C813.892 540.835 811.545 541.495 808.942 541.495C806.669 541.495 804.67 541.055 802.947 540.175C801.26 539.258 799.904 538.085 798.877 536.655V541H791.177V500.3H798.877V514.985ZM814.992 525.655C814.992 523.822 814.607 522.245 813.837 520.925C813.104 519.568 812.114 518.542 810.867 517.845C809.657 517.148 808.337 516.8 806.907 516.8C805.514 516.8 804.194 517.167 802.947 517.9C801.737 518.597 800.747 519.623 799.977 520.98C799.244 522.337 798.877 523.932 798.877 525.765C798.877 527.598 799.244 529.193 799.977 530.55C800.747 531.907 801.737 532.952 802.947 533.685C804.194 534.382 805.514 534.73 806.907 534.73C808.337 534.73 809.657 534.363 810.867 533.63C812.114 532.897 813.104 531.852 813.837 530.495C814.607 529.138 814.992 527.525 814.992 525.655ZM840.332 541.495C837.399 541.495 834.759 540.853 832.412 539.57C830.066 538.25 828.214 536.398 826.857 534.015C825.537 531.632 824.877 528.882 824.877 525.765C824.877 522.648 825.556 519.898 826.912 517.515C828.306 515.132 830.194 513.298 832.577 512.015C834.961 510.695 837.619 510.035 840.552 510.035C843.486 510.035 846.144 510.695 848.527 512.015C850.911 513.298 852.781 515.132 854.137 517.515C855.531 519.898 856.227 522.648 856.227 525.765C856.227 528.882 855.512 531.632 854.082 534.015C852.689 536.398 850.782 538.25 848.362 539.57C845.979 540.853 843.302 541.495 840.332 541.495ZM840.332 534.785C841.726 534.785 843.027 534.455 844.237 533.795C845.484 533.098 846.474 532.072 847.207 530.715C847.941 529.358 848.307 527.708 848.307 525.765C848.307 522.868 847.537 520.65 845.997 519.11C844.494 517.533 842.642 516.745 840.442 516.745C838.242 516.745 836.391 517.533 834.887 519.11C833.421 520.65 832.687 522.868 832.687 525.765C832.687 528.662 833.402 530.898 834.832 532.475C836.299 534.015 838.132 534.785 840.332 534.785ZM867.925 515.26C868.915 513.647 870.199 512.382 871.775 511.465C873.389 510.548 875.222 510.09 877.275 510.09V518.175H875.24C872.82 518.175 870.987 518.743 869.74 519.88C868.53 521.017 867.925 522.997 867.925 525.82V541H860.225V510.53H867.925V515.26ZM878.832 525.655C878.832 522.575 879.437 519.843 880.647 517.46C881.893 515.077 883.562 513.243 885.652 511.96C887.778 510.677 890.143 510.035 892.747 510.035C895.02 510.035 897 510.493 898.687 511.41C900.41 512.327 901.785 513.482 902.812 514.875V510.53H910.567V541H902.812V536.545C901.822 537.975 900.447 539.167 898.687 540.12C896.963 541.037 894.965 541.495 892.692 541.495C890.125 541.495 887.778 540.835 885.652 539.515C883.562 538.195 881.893 536.343 880.647 533.96C879.437 531.54 878.832 528.772 878.832 525.655ZM902.812 525.765C902.812 523.895 902.445 522.3 901.712 520.98C900.978 519.623 899.988 518.597 898.742 517.9C897.495 517.167 896.157 516.8 894.727 516.8C893.297 516.8 891.977 517.148 890.767 517.845C889.557 518.542 888.567 519.568 887.797 520.925C887.063 522.245 886.697 523.822 886.697 525.655C886.697 527.488 887.063 529.102 887.797 530.495C888.567 531.852 889.557 532.897 890.767 533.63C892.013 534.363 893.333 534.73 894.727 534.73C896.157 534.73 897.495 534.382 898.742 533.685C899.988 532.952 900.978 531.925 901.712 530.605C902.445 529.248 902.812 527.635 902.812 525.765ZM925.402 516.855V531.595C925.402 532.622 925.641 533.373 926.117 533.85C926.631 534.29 927.474 534.51 928.647 534.51H932.222V541H927.382C920.892 541 917.647 537.847 917.647 531.54V516.855H914.017V510.53H917.647V502.995H925.402V510.53H932.222V516.855H925.402ZM940.015 506.9C938.659 506.9 937.522 506.478 936.605 505.635C935.725 504.755 935.285 503.673 935.285 502.39C935.285 501.107 935.725 500.043 936.605 499.2C937.522 498.32 938.659 497.88 940.015 497.88C941.372 497.88 942.49 498.32 943.37 499.2C944.287 500.043 944.745 501.107 944.745 502.39C944.745 503.673 944.287 504.755 943.37 505.635C942.49 506.478 941.372 506.9 940.015 506.9ZM943.81 510.53V541H936.11V510.53H943.81ZM963.298 541.495C960.365 541.495 957.725 540.853 955.378 539.57C953.031 538.25 951.18 536.398 949.823 534.015C948.503 531.632 947.843 528.882 947.843 525.765C947.843 522.648 948.521 519.898 949.878 517.515C951.271 515.132 953.16 513.298 955.543 512.015C957.926 510.695 960.585 510.035 963.518 510.035C966.451 510.035 969.11 510.695 971.493 512.015C973.876 513.298 975.746 515.132 977.103 517.515C978.496 519.898 979.193 522.648 979.193 525.765C979.193 528.882 978.478 531.632 977.048 534.015C975.655 536.398 973.748 538.25 971.328 539.57C968.945 540.853 966.268 541.495 963.298 541.495ZM963.298 534.785C964.691 534.785 965.993 534.455 967.203 533.795C968.45 533.098 969.44 532.072 970.173 530.715C970.906 529.358 971.273 527.708 971.273 525.765C971.273 522.868 970.503 520.65 968.963 519.11C967.46 517.533 965.608 516.745 963.408 516.745C961.208 516.745 959.356 517.533 957.853 519.11C956.386 520.65 955.653 522.868 955.653 525.765C955.653 528.662 956.368 530.898 957.798 532.475C959.265 534.015 961.098 534.785 963.298 534.785ZM1000.08 510.09C1003.71 510.09 1006.64 511.245 1008.88 513.555C1011.11 515.828 1012.23 519.018 1012.23 523.125V541H1004.53V524.17C1004.53 521.75 1003.93 519.898 1002.72 518.615C1001.51 517.295 999.856 516.635 997.766 516.635C995.64 516.635 993.953 517.295 992.706 518.615C991.496 519.898 990.891 521.75 990.891 524.17V541H983.191V510.53H990.891V514.325C991.918 513.005 993.22 511.978 994.796 511.245C996.41 510.475 998.17 510.09 1000.08 510.09Z" fill="black"/>
<path d="M397.216 669.262H406.244V672H393.849V646.211H397.216V669.262ZM427.21 661.085C427.21 661.726 427.173 662.405 427.099 663.12H410.893C411.016 665.118 411.694 666.684 412.928 667.819C414.186 668.929 415.703 669.484 417.479 669.484C418.934 669.484 420.143 669.151 421.105 668.485C422.091 667.794 422.782 666.882 423.177 665.747H426.803C426.26 667.696 425.175 669.287 423.547 670.52C421.919 671.729 419.896 672.333 417.479 672.333C415.555 672.333 413.828 671.901 412.299 671.038C410.794 670.175 409.61 668.954 408.747 667.375C407.883 665.772 407.452 663.922 407.452 661.825C407.452 659.728 407.871 657.891 408.71 656.312C409.548 654.733 410.72 653.525 412.225 652.686C413.754 651.823 415.505 651.391 417.479 651.391C419.403 651.391 421.105 651.81 422.585 652.649C424.065 653.488 425.199 654.647 425.989 656.127C426.803 657.582 427.21 659.235 427.21 661.085ZM423.732 660.382C423.732 659.099 423.448 658.002 422.881 657.089C422.313 656.152 421.536 655.449 420.55 654.98C419.588 654.487 418.515 654.24 417.331 654.24C415.629 654.24 414.173 654.783 412.965 655.868C411.781 656.953 411.102 658.458 410.93 660.382H423.732ZM438.092 668.892L444.382 651.724H447.971L440.016 672H436.094L428.139 651.724H431.765L438.092 668.892ZM468.674 661.085C468.674 661.726 468.637 662.405 468.563 663.12H452.357C452.481 665.118 453.159 666.684 454.392 667.819C455.65 668.929 457.167 669.484 458.943 669.484C460.399 669.484 461.607 669.151 462.569 668.485C463.556 667.794 464.247 666.882 464.641 665.747H468.267C467.725 667.696 466.639 669.287 465.011 670.52C463.383 671.729 461.361 672.333 458.943 672.333C457.019 672.333 455.293 671.901 453.763 671.038C452.259 670.175 451.075 668.954 450.211 667.375C449.348 665.772 448.916 663.922 448.916 661.825C448.916 659.728 449.336 657.891 450.174 656.312C451.013 654.733 452.185 653.525 453.689 652.686C455.219 651.823 456.97 651.391 458.943 651.391C460.867 651.391 462.569 651.81 464.049 652.649C465.529 653.488 466.664 654.647 467.453 656.127C468.267 657.582 468.674 659.235 468.674 661.085ZM465.196 660.382C465.196 659.099 464.913 658.002 464.345 657.089C463.778 656.152 463.001 655.449 462.014 654.98C461.052 654.487 459.979 654.24 458.795 654.24C457.093 654.24 455.638 654.783 454.429 655.868C453.245 656.953 452.567 658.458 452.394 660.382H465.196ZM475.376 655.017C475.968 653.858 476.806 652.957 477.892 652.316C479.002 651.675 480.346 651.354 481.925 651.354V654.832H481.037C477.263 654.832 475.376 656.879 475.376 660.974V672H472.009V651.724H475.376V655.017ZM483.443 661.788C483.443 659.716 483.863 657.903 484.701 656.349C485.54 654.77 486.687 653.549 488.142 652.686C489.622 651.823 491.263 651.391 493.063 651.391C494.839 651.391 496.381 651.773 497.688 652.538C498.996 653.303 499.97 654.265 500.611 655.424V651.724H504.015V672H500.611V668.226C499.945 669.41 498.946 670.397 497.614 671.186C496.307 671.951 494.778 672.333 493.026 672.333C491.226 672.333 489.598 671.889 488.142 671.001C486.687 670.113 485.54 668.867 484.701 667.264C483.863 665.661 483.443 663.835 483.443 661.788ZM500.611 661.825C500.611 660.296 500.303 658.964 499.686 657.829C499.07 656.694 498.231 655.831 497.17 655.239C496.134 654.622 494.987 654.314 493.729 654.314C492.471 654.314 491.324 654.61 490.288 655.202C489.252 655.794 488.426 656.657 487.809 657.792C487.193 658.927 486.884 660.259 486.884 661.788C486.884 663.342 487.193 664.699 487.809 665.858C488.426 666.993 489.252 667.868 490.288 668.485C491.324 669.077 492.471 669.373 493.729 669.373C494.987 669.373 496.134 669.077 497.17 668.485C498.231 667.868 499.07 666.993 499.686 665.858C500.303 664.699 500.611 663.354 500.611 661.825ZM516.957 651.391C518.709 651.391 520.238 651.773 521.545 652.538C522.877 653.303 523.864 654.265 524.505 655.424V651.724H527.909V672.444C527.909 674.294 527.515 675.934 526.725 677.365C525.936 678.82 524.801 679.955 523.321 680.769C521.866 681.583 520.164 681.99 518.215 681.99C515.551 681.99 513.331 681.361 511.555 680.103C509.779 678.845 508.731 677.131 508.41 674.96H511.74C512.11 676.193 512.875 677.18 514.034 677.92C515.194 678.685 516.587 679.067 518.215 679.067C520.065 679.067 521.57 678.487 522.729 677.328C523.913 676.169 524.505 674.541 524.505 672.444V668.189C523.839 669.373 522.853 670.36 521.545 671.149C520.238 671.938 518.709 672.333 516.957 672.333C515.157 672.333 513.516 671.889 512.036 671.001C510.581 670.113 509.434 668.867 508.595 667.264C507.757 665.661 507.337 663.835 507.337 661.788C507.337 659.716 507.757 657.903 508.595 656.349C509.434 654.77 510.581 653.549 512.036 652.686C513.516 651.823 515.157 651.391 516.957 651.391ZM524.505 661.825C524.505 660.296 524.197 658.964 523.58 657.829C522.964 656.694 522.125 655.831 521.064 655.239C520.028 654.622 518.881 654.314 517.623 654.314C516.365 654.314 515.218 654.61 514.182 655.202C513.146 655.794 512.32 656.657 511.703 657.792C511.087 658.927 510.778 660.259 510.778 661.788C510.778 663.342 511.087 664.699 511.703 665.858C512.32 666.993 513.146 667.868 514.182 668.485C515.218 669.077 516.365 669.373 517.623 669.373C518.881 669.373 520.028 669.077 521.064 668.485C522.125 667.868 522.964 666.993 523.58 665.858C524.197 664.699 524.505 663.354 524.505 661.825ZM550.989 661.085C550.989 661.726 550.952 662.405 550.878 663.12H534.672C534.795 665.118 535.474 666.684 536.707 667.819C537.965 668.929 539.482 669.484 541.258 669.484C542.713 669.484 543.922 669.151 544.884 668.485C545.871 667.794 546.561 666.882 546.956 665.747H550.582C550.039 667.696 548.954 669.287 547.326 670.52C545.698 671.729 543.675 672.333 541.258 672.333C539.334 672.333 537.607 671.901 536.078 671.038C534.573 670.175 533.389 668.954 532.526 667.375C531.663 665.772 531.231 663.922 531.231 661.825C531.231 659.728 531.65 657.891 532.489 656.312C533.328 654.733 534.499 653.525 536.004 652.686C537.533 651.823 539.285 651.391 541.258 651.391C543.182 651.391 544.884 651.81 546.364 652.649C547.844 653.488 548.979 654.647 549.768 656.127C550.582 657.582 550.989 659.235 550.989 661.085ZM547.511 660.382C547.511 659.099 547.227 658.002 546.66 657.089C546.093 656.152 545.316 655.449 544.329 654.98C543.367 654.487 542.294 654.24 541.11 654.24C539.408 654.24 537.953 654.783 536.744 655.868C535.56 656.953 534.882 658.458 534.709 660.382H547.511ZM561.501 672.333C559.947 672.333 558.554 672.074 557.32 671.556C556.087 671.013 555.113 670.273 554.397 669.336C553.682 668.374 553.287 667.276 553.213 666.043H556.691C556.79 667.054 557.259 667.881 558.097 668.522C558.961 669.163 560.083 669.484 561.464 669.484C562.747 669.484 563.758 669.2 564.498 668.633C565.238 668.066 565.608 667.35 565.608 666.487C565.608 665.599 565.214 664.945 564.424 664.526C563.635 664.082 562.414 663.65 560.761 663.231C559.257 662.836 558.023 662.442 557.061 662.047C556.124 661.628 555.31 661.023 554.619 660.234C553.953 659.42 553.62 658.359 553.62 657.052C553.62 656.016 553.929 655.066 554.545 654.203C555.162 653.34 556.038 652.661 557.172 652.168C558.307 651.65 559.602 651.391 561.057 651.391C563.302 651.391 565.115 651.958 566.496 653.093C567.878 654.228 568.618 655.782 568.716 657.755H565.349C565.275 656.694 564.844 655.843 564.054 655.202C563.29 654.561 562.254 654.24 560.946 654.24C559.738 654.24 558.776 654.499 558.06 655.017C557.345 655.535 556.987 656.213 556.987 657.052C556.987 657.718 557.197 658.273 557.616 658.717C558.06 659.136 558.603 659.482 559.244 659.753C559.91 660 560.823 660.283 561.982 660.604C563.438 660.999 564.622 661.393 565.534 661.788C566.447 662.158 567.224 662.725 567.865 663.49C568.531 664.255 568.877 665.254 568.901 666.487C568.901 667.597 568.593 668.596 567.976 669.484C567.36 670.372 566.484 671.075 565.349 671.593C564.239 672.086 562.957 672.333 561.501 672.333Z" fill="black"/>
<path d="M287.436 737.364C284.039 737.364 280.919 736.567 278.076 734.972C275.233 733.377 272.98 731.176 271.316 728.368C269.652 725.525 268.82 722.319 268.82 718.748C268.82 715.212 269.652 712.04 271.316 709.232C272.98 706.389 275.233 704.171 278.076 702.576C280.919 700.981 284.039 700.184 287.436 700.184C290.868 700.184 293.988 700.981 296.796 702.576C299.639 704.171 301.875 706.389 303.504 709.232C305.168 712.04 306 715.212 306 718.748C306 722.319 305.168 725.525 303.504 728.368C301.875 731.176 299.639 733.377 296.796 734.972C293.953 736.567 290.833 737.364 287.436 737.364ZM287.436 730.864C289.62 730.864 291.544 730.379 293.208 729.408C294.872 728.403 296.172 726.981 297.108 725.144C298.044 723.307 298.512 721.175 298.512 718.748C298.512 716.321 298.044 714.207 297.108 712.404C296.172 710.567 294.872 709.163 293.208 708.192C291.544 707.221 289.62 706.736 287.436 706.736C285.252 706.736 283.311 707.221 281.612 708.192C279.948 709.163 278.648 710.567 277.712 712.404C276.776 714.207 276.308 716.321 276.308 718.748C276.308 721.175 276.776 723.307 277.712 725.144C278.648 726.981 279.948 728.403 281.612 729.408C283.311 730.379 285.252 730.864 287.436 730.864ZM317.136 712.352C318.072 711.035 319.355 709.943 320.984 709.076C322.648 708.175 324.537 707.724 326.652 707.724C329.113 707.724 331.332 708.331 333.308 709.544C335.319 710.757 336.896 712.491 338.04 714.744C339.219 716.963 339.808 719.545 339.808 722.492C339.808 725.439 339.219 728.056 338.04 730.344C336.896 732.597 335.319 734.348 333.308 735.596C331.332 736.844 329.113 737.468 326.652 737.468C324.537 737.468 322.665 737.035 321.036 736.168C319.441 735.301 318.141 734.209 317.136 732.892V750.728H309.856V708.192H317.136V712.352ZM332.372 722.492C332.372 720.759 332.008 719.268 331.28 718.02C330.587 716.737 329.651 715.767 328.472 715.108C327.328 714.449 326.08 714.12 324.728 714.12C323.411 714.12 322.163 714.467 320.984 715.16C319.84 715.819 318.904 716.789 318.176 718.072C317.483 719.355 317.136 720.863 317.136 722.596C317.136 724.329 317.483 725.837 318.176 727.12C318.904 728.403 319.84 729.391 320.984 730.084C322.163 730.743 323.411 731.072 324.728 731.072C326.08 731.072 327.328 730.725 328.472 730.032C329.651 729.339 330.587 728.351 331.28 727.068C332.008 725.785 332.372 724.26 332.372 722.492ZM370.318 721.972C370.318 723.012 370.249 723.948 370.11 724.78H349.05C349.224 726.86 349.952 728.489 351.234 729.668C352.517 730.847 354.094 731.436 355.966 731.436C358.67 731.436 360.594 730.275 361.738 727.952H369.59C368.758 730.725 367.164 733.013 364.806 734.816C362.449 736.584 359.554 737.468 356.122 737.468C353.349 737.468 350.853 736.861 348.634 735.648C346.45 734.4 344.734 732.649 343.486 730.396C342.273 728.143 341.666 725.543 341.666 722.596C341.666 719.615 342.273 716.997 343.486 714.744C344.7 712.491 346.398 710.757 348.582 709.544C350.766 708.331 353.28 707.724 356.122 707.724C358.861 707.724 361.305 708.313 363.454 709.492C365.638 710.671 367.32 712.352 368.498 714.536C369.712 716.685 370.318 719.164 370.318 721.972ZM362.778 719.892C362.744 718.02 362.068 716.529 360.75 715.42C359.433 714.276 357.821 713.704 355.914 713.704C354.112 713.704 352.586 714.259 351.338 715.368C350.125 716.443 349.38 717.951 349.102 719.892H362.778ZM390.036 707.776C393.468 707.776 396.241 708.868 398.356 711.052C400.471 713.201 401.528 716.217 401.528 720.1V737H394.248V721.088C394.248 718.8 393.676 717.049 392.532 715.836C391.388 714.588 389.828 713.964 387.852 713.964C385.841 713.964 384.247 714.588 383.068 715.836C381.924 717.049 381.352 718.8 381.352 721.088V737H374.072V708.192H381.352V711.78C382.323 710.532 383.553 709.561 385.044 708.868C386.569 708.14 388.233 707.776 390.036 707.776ZM429.147 730.084H414.691L412.299 737H404.655L417.707 700.652H426.183L439.235 737H431.539L429.147 730.084ZM427.171 724.26L421.919 709.076L416.667 724.26H427.171ZM449.834 700.704V737H442.554V700.704H449.834ZM456.922 700.704H464.566L458.95 713.808H453.958L456.922 700.704ZM479.251 737.468C476.893 737.468 474.779 737.052 472.907 736.22C471.035 735.353 469.544 734.192 468.435 732.736C467.36 731.28 466.771 729.668 466.667 727.9H473.999C474.137 729.009 474.675 729.928 475.611 730.656C476.581 731.384 477.777 731.748 479.199 731.748C480.585 731.748 481.66 731.471 482.423 730.916C483.22 730.361 483.619 729.651 483.619 728.784C483.619 727.848 483.133 727.155 482.163 726.704C481.227 726.219 479.719 725.699 477.639 725.144C475.489 724.624 473.721 724.087 472.335 723.532C470.983 722.977 469.804 722.128 468.799 720.984C467.828 719.84 467.343 718.297 467.343 716.356C467.343 714.761 467.793 713.305 468.695 711.988C469.631 710.671 470.948 709.631 472.647 708.868C474.38 708.105 476.408 707.724 478.731 707.724C482.163 707.724 484.901 708.591 486.947 710.324C488.992 712.023 490.119 714.328 490.327 717.24H483.359C483.255 716.096 482.769 715.195 481.903 714.536C481.071 713.843 479.944 713.496 478.523 713.496C477.205 713.496 476.183 713.739 475.455 714.224C474.761 714.709 474.415 715.385 474.415 716.252C474.415 717.223 474.9 717.968 475.871 718.488C476.841 718.973 478.349 719.476 480.395 719.996C482.475 720.516 484.191 721.053 485.543 721.608C486.895 722.163 488.056 723.029 489.027 724.208C490.032 725.352 490.552 726.877 490.587 728.784C490.587 730.448 490.119 731.939 489.183 733.256C488.281 734.573 486.964 735.613 485.231 736.376C483.532 737.104 481.539 737.468 479.251 737.468ZM531.105 711.624C530.273 710.099 529.129 708.937 527.673 708.14C526.217 707.343 524.518 706.944 522.577 706.944C520.428 706.944 518.521 707.429 516.857 708.4C515.193 709.371 513.893 710.757 512.957 712.56C512.021 714.363 511.553 716.443 511.553 718.8C511.553 721.227 512.021 723.341 512.957 725.144C513.928 726.947 515.262 728.333 516.961 729.304C518.66 730.275 520.636 730.76 522.889 730.76C525.662 730.76 527.933 730.032 529.701 728.576C531.469 727.085 532.63 725.023 533.185 722.388H520.705V716.824H540.361V723.168C539.876 725.699 538.836 728.039 537.241 730.188C535.646 732.337 533.584 734.071 531.053 735.388C528.557 736.671 525.749 737.312 522.629 737.312C519.128 737.312 515.956 736.532 513.113 734.972C510.305 733.377 508.086 731.176 506.457 728.368C504.862 725.56 504.065 722.371 504.065 718.8C504.065 715.229 504.862 712.04 506.457 709.232C508.086 706.389 510.305 704.188 513.113 702.628C515.956 701.033 519.11 700.236 522.577 700.236C526.668 700.236 530.221 701.241 533.237 703.252C536.253 705.228 538.333 708.019 539.477 711.624H531.105ZM570.655 711.936C570.655 713.877 570.187 715.697 569.251 717.396C568.35 719.095 566.911 720.464 564.935 721.504C562.994 722.544 560.533 723.064 557.551 723.064H551.467V737H544.187V700.704H557.551C560.359 700.704 562.751 701.189 564.727 702.16C566.703 703.131 568.177 704.465 569.147 706.164C570.153 707.863 570.655 709.787 570.655 711.936ZM557.239 717.188C559.25 717.188 560.741 716.737 561.711 715.836C562.682 714.9 563.167 713.6 563.167 711.936C563.167 708.4 561.191 706.632 557.239 706.632H551.467V717.188H557.239ZM598.964 700.704V706.58H589.292V737H582.012V706.58H572.34V700.704H598.964ZM635.698 715.368V721.504H613.65V715.368H635.698ZM651.989 729.616V723.896L668.993 699.56H677.469V723.272H682.045V729.616H677.469V737H670.189V729.616H651.989ZM670.657 707.36L659.997 723.272H670.657V707.36Z" fill="black"/>
<path d="M344.672 237.214L330.08 277H320.39L305.798 237.214H314.348L325.292 268.849L336.179 237.214H344.672ZM377.557 245.422V277H369.52V273.01C368.494 274.378 367.145 275.461 365.473 276.259C363.839 277.019 362.053 277.399 360.115 277.399C357.645 277.399 355.46 276.886 353.56 275.86C351.66 274.796 350.159 273.257 349.057 271.243C347.993 269.191 347.461 266.759 347.461 263.947V245.422H355.441V262.807C355.441 265.315 356.068 267.253 357.322 268.621C358.576 269.951 360.286 270.616 362.452 270.616C364.656 270.616 366.385 269.951 367.639 268.621C368.893 267.253 369.52 265.315 369.52 262.807V245.422H377.557ZM391.701 234.82V277H383.721V234.82H391.701ZM415.374 244.966C419.136 244.966 422.176 246.163 424.494 248.557C426.812 250.913 427.971 254.219 427.971 258.475V277H419.991V259.558C419.991 257.05 419.364 255.131 418.11 253.801C416.856 252.433 415.146 251.749 412.98 251.749C410.776 251.749 409.028 252.433 407.736 253.801C406.482 255.131 405.855 257.05 405.855 259.558V277H397.875V245.422H405.855V249.355C406.919 247.987 408.268 246.923 409.902 246.163C411.574 245.365 413.398 244.966 415.374 244.966ZM463.205 260.527C463.205 261.667 463.129 262.693 462.977 263.605H439.892C440.082 265.885 440.88 267.671 442.286 268.963C443.692 270.255 445.421 270.901 447.473 270.901C450.437 270.901 452.546 269.628 453.8 267.082H462.407C461.495 270.122 459.747 272.63 457.163 274.606C454.579 276.544 451.406 277.513 447.644 277.513C444.604 277.513 441.868 276.848 439.436 275.518C437.042 274.15 435.161 272.231 433.793 269.761C432.463 267.291 431.798 264.441 431.798 261.211C431.798 257.943 432.463 255.074 433.793 252.604C435.123 250.134 436.985 248.234 439.379 246.904C441.773 245.574 444.528 244.909 447.644 244.909C450.646 244.909 453.325 245.555 455.681 246.847C458.075 248.139 459.918 249.982 461.21 252.376C462.54 254.732 463.205 257.449 463.205 260.527ZM454.94 258.247C454.902 256.195 454.161 254.561 452.717 253.345C451.273 252.091 449.506 251.464 447.416 251.464C445.44 251.464 443.768 252.072 442.4 253.288C441.07 254.466 440.253 256.119 439.949 258.247H454.94ZM475.3 250.324C476.326 248.652 477.656 247.341 479.29 246.391C480.962 245.441 482.862 244.966 484.99 244.966V253.345H482.881C480.373 253.345 478.473 253.934 477.181 255.112C475.927 256.29 475.3 258.342 475.3 261.268V277H467.32V245.422H475.3V250.324ZM486.602 261.097C486.602 257.905 487.229 255.074 488.483 252.604C489.775 250.134 491.504 248.234 493.67 246.904C495.874 245.574 498.325 244.909 501.023 244.909C503.379 244.909 505.431 245.384 507.179 246.334C508.965 247.284 510.39 248.481 511.454 249.925V245.422H519.491V277H511.454V272.383C510.428 273.865 509.003 275.1 507.179 276.088C505.393 277.038 503.322 277.513 500.966 277.513C498.306 277.513 495.874 276.829 493.67 275.461C491.504 274.093 489.775 272.174 488.483 269.704C487.229 267.196 486.602 264.327 486.602 261.097ZM511.454 261.211C511.454 259.273 511.074 257.62 510.314 256.252C509.554 254.846 508.528 253.782 507.236 253.06C505.944 252.3 504.557 251.92 503.075 251.92C501.593 251.92 500.225 252.281 498.971 253.003C497.717 253.725 496.691 254.789 495.893 256.195C495.133 257.563 494.753 259.197 494.753 261.097C494.753 262.997 495.133 264.669 495.893 266.113C496.691 267.519 497.717 268.602 498.971 269.362C500.263 270.122 501.631 270.502 503.075 270.502C504.557 270.502 505.944 270.141 507.236 269.419C508.528 268.659 509.554 267.595 510.314 266.227C511.074 264.821 511.454 263.149 511.454 261.211ZM533.555 250.039C534.581 248.519 535.987 247.284 537.773 246.334C539.597 245.384 541.668 244.909 543.986 244.909C546.684 244.909 549.116 245.574 551.282 246.904C553.486 248.234 555.215 250.134 556.469 252.604C557.761 255.036 558.407 257.867 558.407 261.097C558.407 264.327 557.761 267.196 556.469 269.704C555.215 272.174 553.486 274.093 551.282 275.461C549.116 276.829 546.684 277.513 543.986 277.513C541.63 277.513 539.559 277.057 537.773 276.145C536.025 275.195 534.619 273.979 533.555 272.497V277H525.575V234.82H533.555V250.039ZM550.256 261.097C550.256 259.197 549.857 257.563 549.059 256.195C548.299 254.789 547.273 253.725 545.981 253.003C544.727 252.281 543.359 251.92 541.877 251.92C540.433 251.92 539.065 252.3 537.773 253.06C536.519 253.782 535.493 254.846 534.695 256.252C533.935 257.658 533.555 259.311 533.555 261.211C533.555 263.111 533.935 264.764 534.695 266.17C535.493 267.576 536.519 268.659 537.773 269.419C539.065 270.141 540.433 270.502 541.877 270.502C543.359 270.502 544.727 270.122 545.981 269.362C547.273 268.602 548.299 267.519 549.059 266.113C549.857 264.707 550.256 263.035 550.256 261.097ZM566.543 241.66C565.137 241.66 563.959 241.223 563.009 240.349C562.097 239.437 561.641 238.316 561.641 236.986C561.641 235.656 562.097 234.554 563.009 233.68C563.959 232.768 565.137 232.312 566.543 232.312C567.949 232.312 569.108 232.768 570.02 233.68C570.97 234.554 571.445 235.656 571.445 236.986C571.445 238.316 570.97 239.437 570.02 240.349C569.108 241.223 567.949 241.66 566.543 241.66ZM570.476 245.422V277H562.496V245.422H570.476ZM584.63 234.82V277H576.65V234.82H584.63ZM594.852 241.66C593.446 241.66 592.268 241.223 591.318 240.349C590.406 239.437 589.95 238.316 589.95 236.986C589.95 235.656 590.406 234.554 591.318 233.68C592.268 232.768 593.446 232.312 594.852 232.312C596.258 232.312 597.417 232.768 598.329 233.68C599.279 234.554 599.754 235.656 599.754 236.986C599.754 238.316 599.279 239.437 598.329 240.349C597.417 241.223 596.258 241.66 594.852 241.66ZM598.785 245.422V277H590.805V245.422H598.785ZM614.25 251.977V267.253C614.25 268.317 614.497 269.096 614.991 269.59C615.523 270.046 616.397 270.274 617.613 270.274H621.318V277H616.302C609.576 277 606.213 273.732 606.213 267.196V251.977H602.451V245.422H606.213V237.613H614.25V245.422H621.318V251.977H614.25ZM655.558 245.422L636.007 291.934H627.514L634.354 276.202L621.7 245.422H630.649L638.8 267.481L647.065 245.422H655.558Z" fill="black"/>
<path d="M647.73 312.362V334H643.39V319.926L637.593 334H634.307L628.479 319.926V334H624.139V312.362H629.068L635.95 328.451L642.832 312.362H647.73ZM653.602 314.78C652.837 314.78 652.197 314.542 651.68 314.067C651.184 313.571 650.936 312.961 650.936 312.238C650.936 311.515 651.184 310.915 651.68 310.44C652.197 309.944 652.837 309.696 653.602 309.696C654.367 309.696 654.997 309.944 655.493 310.44C656.01 310.915 656.268 311.515 656.268 312.238C656.268 312.961 656.01 313.571 655.493 314.067C654.997 314.542 654.367 314.78 653.602 314.78ZM655.741 316.826V334H651.401V316.826H655.741ZM664.462 320.391V328.699C664.462 329.278 664.596 329.701 664.865 329.97C665.154 330.218 665.629 330.342 666.291 330.342H668.306V334H665.578C661.92 334 660.091 332.223 660.091 328.668V320.391H658.045V316.826H660.091V312.579H664.462V316.826H668.306V320.391H664.462ZM673.008 314.78C672.244 314.78 671.603 314.542 671.086 314.067C670.59 313.571 670.342 312.961 670.342 312.238C670.342 311.515 670.59 310.915 671.086 310.44C671.603 309.944 672.244 309.696 673.008 309.696C673.773 309.696 674.403 309.944 674.899 310.44C675.416 310.915 675.674 311.515 675.674 312.238C675.674 312.961 675.416 313.571 674.899 314.067C674.403 314.542 673.773 314.78 673.008 314.78ZM675.147 316.826V334H670.807V316.826H675.147ZM685.542 316.547C686.824 316.547 687.95 316.805 688.921 317.322C689.893 317.818 690.657 318.469 691.215 319.275V316.826H695.586V334.124C695.586 335.715 695.266 337.131 694.625 338.371C693.985 339.632 693.024 340.624 691.742 341.347C690.461 342.091 688.911 342.463 687.092 342.463C684.654 342.463 682.649 341.895 681.078 340.758C679.528 339.621 678.65 338.071 678.443 336.108H682.752C682.98 336.893 683.465 337.513 684.209 337.968C684.974 338.443 685.894 338.681 686.968 338.681C688.229 338.681 689.252 338.299 690.037 337.534C690.823 336.79 691.215 335.653 691.215 334.124V331.458C690.657 332.264 689.882 332.936 688.89 333.473C687.919 334.01 686.803 334.279 685.542 334.279C684.096 334.279 682.773 333.907 681.574 333.163C680.376 332.419 679.425 331.375 678.722 330.032C678.04 328.668 677.699 327.108 677.699 325.351C677.699 323.615 678.04 322.075 678.722 320.732C679.425 319.389 680.365 318.355 681.543 317.632C682.742 316.909 684.075 316.547 685.542 316.547ZM691.215 325.413C691.215 324.359 691.009 323.46 690.595 322.716C690.182 321.951 689.624 321.373 688.921 320.98C688.219 320.567 687.464 320.36 686.658 320.36C685.852 320.36 685.108 320.556 684.426 320.949C683.744 321.342 683.186 321.92 682.752 322.685C682.339 323.429 682.132 324.318 682.132 325.351C682.132 326.384 682.339 327.294 682.752 328.079C683.186 328.844 683.744 329.433 684.426 329.846C685.129 330.259 685.873 330.466 686.658 330.466C687.464 330.466 688.219 330.27 688.921 329.877C689.624 329.464 690.182 328.885 690.595 328.141C691.009 327.376 691.215 326.467 691.215 325.413ZM698.089 325.351C698.089 323.615 698.43 322.075 699.112 320.732C699.815 319.389 700.755 318.355 701.933 317.632C703.132 316.909 704.465 316.547 705.932 316.547C707.213 316.547 708.329 316.805 709.28 317.322C710.251 317.839 711.026 318.49 711.605 319.275V316.826H715.976V334H711.605V331.489C711.047 332.295 710.272 332.967 709.28 333.504C708.309 334.021 707.182 334.279 705.901 334.279C704.454 334.279 703.132 333.907 701.933 333.163C700.755 332.419 699.815 331.375 699.112 330.032C698.43 328.668 698.089 327.108 698.089 325.351ZM711.605 325.413C711.605 324.359 711.398 323.46 710.985 322.716C710.572 321.951 710.014 321.373 709.311 320.98C708.608 320.567 707.854 320.36 707.048 320.36C706.242 320.36 705.498 320.556 704.816 320.949C704.134 321.342 703.576 321.92 703.142 322.685C702.729 323.429 702.522 324.318 702.522 325.351C702.522 326.384 702.729 327.294 703.142 328.079C703.576 328.844 704.134 329.433 704.816 329.846C705.519 330.259 706.263 330.466 707.048 330.466C707.854 330.466 708.608 330.27 709.311 329.877C710.014 329.464 710.572 328.885 710.985 328.141C711.398 327.376 711.605 326.467 711.605 325.413ZM724.648 320.391V328.699C724.648 329.278 724.782 329.701 725.051 329.97C725.34 330.218 725.815 330.342 726.477 330.342H728.492V334H725.764C722.106 334 720.277 332.223 720.277 328.668V320.391H718.231V316.826H720.277V312.579H724.648V316.826H728.492V320.391H724.648ZM733.194 314.78C732.43 314.78 731.789 314.542 731.272 314.067C730.776 313.571 730.528 312.961 730.528 312.238C730.528 311.515 730.776 310.915 731.272 310.44C731.789 309.944 732.43 309.696 733.194 309.696C733.959 309.696 734.589 309.944 735.085 310.44C735.602 310.915 735.86 311.515 735.86 312.238C735.86 312.961 735.602 313.571 735.085 314.067C734.589 314.542 733.959 314.78 733.194 314.78ZM735.333 316.826V334H730.993V316.826H735.333ZM746.627 334.279C744.974 334.279 743.486 333.917 742.163 333.194C740.841 332.45 739.797 331.406 739.032 330.063C738.288 328.72 737.916 327.17 737.916 325.413C737.916 323.656 738.299 322.106 739.063 320.763C739.849 319.42 740.913 318.386 742.256 317.663C743.6 316.919 745.098 316.547 746.751 316.547C748.405 316.547 749.903 316.919 751.246 317.663C752.59 318.386 753.644 319.42 754.408 320.763C755.194 322.106 755.586 323.656 755.586 325.413C755.586 327.17 755.183 328.72 754.377 330.063C753.592 331.406 752.517 332.45 751.153 333.194C749.81 333.917 748.301 334.279 746.627 334.279ZM746.627 330.497C747.413 330.497 748.146 330.311 748.828 329.939C749.531 329.546 750.089 328.968 750.502 328.203C750.916 327.438 751.122 326.508 751.122 325.413C751.122 323.78 750.688 322.53 749.82 321.662C748.973 320.773 747.929 320.329 746.689 320.329C745.449 320.329 744.406 320.773 743.558 321.662C742.732 322.53 742.318 323.78 742.318 325.413C742.318 327.046 742.721 328.306 743.527 329.195C744.354 330.063 745.387 330.497 746.627 330.497ZM767.667 316.578C769.713 316.578 771.366 317.229 772.627 318.531C773.887 319.812 774.518 321.61 774.518 323.925V334H770.178V324.514C770.178 323.15 769.837 322.106 769.155 321.383C768.473 320.639 767.543 320.267 766.365 320.267C765.166 320.267 764.215 320.639 763.513 321.383C762.831 322.106 762.49 323.15 762.49 324.514V334H758.15V316.826H762.49V318.965C763.068 318.221 763.802 317.642 764.691 317.229C765.6 316.795 766.592 316.578 767.667 316.578Z" fill="black"/>
<path d="M403.703 312.362C405.976 312.362 407.971 312.806 409.686 313.695C411.422 314.584 412.755 315.855 413.685 317.508C414.636 319.141 415.111 321.042 415.111 323.212C415.111 325.382 414.636 327.283 413.685 328.916C412.755 330.528 411.422 331.778 409.686 332.667C407.971 333.556 405.976 334 403.703 334H396.139V312.362H403.703ZM403.548 330.311C405.821 330.311 407.578 329.691 408.818 328.451C410.058 327.211 410.678 325.465 410.678 323.212C410.678 320.959 410.058 319.203 408.818 317.942C407.578 316.661 405.821 316.02 403.548 316.02H400.479V330.311H403.548ZM433.705 325.041C433.705 325.661 433.663 326.219 433.581 326.715H421.026C421.129 327.955 421.563 328.926 422.328 329.629C423.092 330.332 424.033 330.683 425.149 330.683C426.761 330.683 427.908 329.991 428.59 328.606H433.271C432.775 330.259 431.824 331.623 430.419 332.698C429.013 333.752 427.288 334.279 425.242 334.279C423.588 334.279 422.1 333.917 420.778 333.194C419.476 332.45 418.453 331.406 417.709 330.063C416.985 328.72 416.624 327.17 416.624 325.413C416.624 323.636 416.985 322.075 417.709 320.732C418.432 319.389 419.445 318.355 420.747 317.632C422.049 316.909 423.547 316.547 425.242 316.547C426.874 316.547 428.331 316.898 429.613 317.601C430.915 318.304 431.917 319.306 432.62 320.608C433.343 321.889 433.705 323.367 433.705 325.041ZM429.21 323.801C429.189 322.685 428.786 321.796 428.001 321.135C427.215 320.453 426.254 320.112 425.118 320.112C424.043 320.112 423.134 320.443 422.39 321.104C421.666 321.745 421.222 322.644 421.057 323.801H429.21ZM441.306 320.391V328.699C441.306 329.278 441.44 329.701 441.709 329.97C441.998 330.218 442.473 330.342 443.135 330.342H445.15V334H442.422C438.764 334 436.935 332.223 436.935 328.668V320.391H434.889V316.826H436.935V312.579H441.306V316.826H445.15V320.391H441.306ZM463.616 325.041C463.616 325.661 463.575 326.219 463.492 326.715H450.937C451.04 327.955 451.474 328.926 452.239 329.629C453.004 330.332 453.944 330.683 455.06 330.683C456.672 330.683 457.819 329.991 458.501 328.606H463.182C462.686 330.259 461.735 331.623 460.33 332.698C458.925 333.752 457.199 334.279 455.153 334.279C453.5 334.279 452.012 333.917 450.689 333.194C449.387 332.45 448.364 331.406 447.62 330.063C446.897 328.72 446.535 327.17 446.535 325.413C446.535 323.636 446.897 322.075 447.62 320.732C448.343 319.389 449.356 318.355 450.658 317.632C451.96 316.909 453.458 316.547 455.153 316.547C456.786 316.547 458.243 316.898 459.524 317.601C460.826 318.304 461.828 319.306 462.531 320.608C463.254 321.889 463.616 323.367 463.616 325.041ZM459.121 323.801C459.1 322.685 458.697 321.796 457.912 321.135C457.127 320.453 456.166 320.112 455.029 320.112C453.954 320.112 453.045 320.443 452.301 321.104C451.578 321.745 451.133 322.644 450.968 323.801H459.121ZM465.048 325.413C465.048 323.636 465.41 322.086 466.133 320.763C466.856 319.42 467.859 318.386 469.14 317.663C470.421 316.919 471.889 316.547 473.542 316.547C475.671 316.547 477.427 317.084 478.812 318.159C480.217 319.213 481.158 320.701 481.633 322.623H476.952C476.704 321.879 476.28 321.3 475.681 320.887C475.102 320.453 474.379 320.236 473.511 320.236C472.271 320.236 471.289 320.691 470.566 321.6C469.843 322.489 469.481 323.76 469.481 325.413C469.481 327.046 469.843 328.317 470.566 329.226C471.289 330.115 472.271 330.559 473.511 330.559C475.268 330.559 476.415 329.774 476.952 328.203H481.633C481.158 330.063 480.217 331.541 478.812 332.636C477.407 333.731 475.65 334.279 473.542 334.279C471.889 334.279 470.421 333.917 469.14 333.194C467.859 332.45 466.856 331.417 466.133 330.094C465.41 328.751 465.048 327.19 465.048 325.413ZM489.245 320.391V328.699C489.245 329.278 489.38 329.701 489.648 329.97C489.938 330.218 490.413 330.342 491.074 330.342H493.089V334H490.361C486.703 334 484.874 332.223 484.874 328.668V320.391H482.828V316.826H484.874V312.579H489.245V316.826H493.089V320.391H489.245ZM497.792 314.78C497.027 314.78 496.387 314.542 495.87 314.067C495.374 313.571 495.126 312.961 495.126 312.238C495.126 311.515 495.374 310.915 495.87 310.44C496.387 309.944 497.027 309.696 497.792 309.696C498.557 309.696 499.187 309.944 499.683 310.44C500.2 310.915 500.458 311.515 500.458 312.238C500.458 312.961 500.2 313.571 499.683 314.067C499.187 314.542 498.557 314.78 497.792 314.78ZM499.931 316.826V334H495.591V316.826H499.931ZM511.225 334.279C509.571 334.279 508.083 333.917 506.761 333.194C505.438 332.45 504.394 331.406 503.63 330.063C502.886 328.72 502.514 327.17 502.514 325.413C502.514 323.656 502.896 322.106 503.661 320.763C504.446 319.42 505.51 318.386 506.854 317.663C508.197 316.919 509.695 316.547 511.349 316.547C513.002 316.547 514.5 316.919 515.844 317.663C517.187 318.386 518.241 319.42 519.006 320.763C519.791 322.106 520.184 323.656 520.184 325.413C520.184 327.17 519.781 328.72 518.975 330.063C518.189 331.406 517.115 332.45 515.751 333.194C514.407 333.917 512.899 334.279 511.225 334.279ZM511.225 330.497C512.01 330.497 512.744 330.311 513.426 329.939C514.128 329.546 514.686 328.968 515.1 328.203C515.513 327.438 515.72 326.508 515.72 325.413C515.72 323.78 515.286 322.53 514.418 321.662C513.57 320.773 512.527 320.329 511.287 320.329C510.047 320.329 509.003 320.773 508.156 321.662C507.329 322.53 506.916 323.78 506.916 325.413C506.916 327.046 507.319 328.306 508.125 329.195C508.951 330.063 509.985 330.497 511.225 330.497ZM532.264 316.578C534.31 316.578 535.964 317.229 537.224 318.531C538.485 319.812 539.115 321.61 539.115 323.925V334H534.775V324.514C534.775 323.15 534.434 322.106 533.752 321.383C533.07 320.639 532.14 320.267 530.962 320.267C529.764 320.267 528.813 320.639 528.11 321.383C527.428 322.106 527.087 323.15 527.087 324.514V334H522.747V316.826H527.087V318.965C527.666 318.221 528.4 317.642 529.288 317.229C530.198 316.795 531.19 316.578 532.264 316.578Z" fill="black"/>
<path d="M199.407 329.877H190.789L189.363 334H184.806L192.587 312.331H197.64L205.421 334H200.833L199.407 329.877ZM198.229 326.405L195.098 317.353L191.967 326.405H198.229ZM217.226 316.578C219.272 316.578 220.926 317.229 222.186 318.531C223.447 319.812 224.077 321.61 224.077 323.925V334H219.737V324.514C219.737 323.15 219.396 322.106 218.714 321.383C218.032 320.639 217.102 320.267 215.924 320.267C214.726 320.267 213.775 320.639 213.072 321.383C212.39 322.106 212.049 323.15 212.049 324.514V334H207.709V316.826H212.049V318.965C212.628 318.221 213.362 317.642 214.25 317.229C215.16 316.795 216.152 316.578 217.226 316.578ZM226.469 325.351C226.469 323.615 226.81 322.075 227.492 320.732C228.194 319.389 229.135 318.355 230.313 317.632C231.511 316.909 232.844 316.547 234.312 316.547C235.593 316.547 236.709 316.805 237.66 317.322C238.631 317.839 239.406 318.49 239.985 319.275V316.826H244.356V334H239.985V331.489C239.427 332.295 238.652 332.967 237.66 333.504C236.688 334.021 235.562 334.279 234.281 334.279C232.834 334.279 231.511 333.907 230.313 333.163C229.135 332.419 228.194 331.375 227.492 330.032C226.81 328.668 226.469 327.108 226.469 325.351ZM239.985 325.413C239.985 324.359 239.778 323.46 239.365 322.716C238.951 321.951 238.393 321.373 237.691 320.98C236.988 320.567 236.234 320.36 235.428 320.36C234.622 320.36 233.878 320.556 233.196 320.949C232.514 321.342 231.956 321.92 231.522 322.685C231.108 323.429 230.902 324.318 230.902 325.351C230.902 326.384 231.108 327.294 231.522 328.079C231.956 328.844 232.514 329.433 233.196 329.846C233.898 330.259 234.642 330.466 235.428 330.466C236.234 330.466 236.988 330.27 237.691 329.877C238.393 329.464 238.951 328.885 239.365 328.141C239.778 327.376 239.985 326.467 239.985 325.413ZM252.314 311.06V334H247.974V311.06H252.314ZM272.412 316.826L261.779 342.122H257.16L260.88 333.566L253.998 316.826H258.865L263.298 328.823L267.793 316.826H272.412ZM280.704 334.279C279.298 334.279 278.038 334.031 276.922 333.535C275.806 333.018 274.917 332.326 274.256 331.458C273.615 330.59 273.264 329.629 273.202 328.575H277.573C277.655 329.236 277.976 329.784 278.534 330.218C279.112 330.652 279.825 330.869 280.673 330.869C281.499 330.869 282.14 330.704 282.595 330.373C283.07 330.042 283.308 329.619 283.308 329.102C283.308 328.544 283.018 328.131 282.44 327.862C281.882 327.573 280.983 327.263 279.743 326.932C278.461 326.622 277.407 326.302 276.581 325.971C275.775 325.64 275.072 325.134 274.473 324.452C273.894 323.77 273.605 322.85 273.605 321.693C273.605 320.742 273.873 319.874 274.411 319.089C274.969 318.304 275.754 317.684 276.767 317.229C277.8 316.774 279.009 316.547 280.394 316.547C282.44 316.547 284.072 317.064 285.292 318.097C286.511 319.11 287.183 320.484 287.307 322.22H283.153C283.091 321.538 282.801 321.001 282.285 320.608C281.789 320.195 281.117 319.988 280.27 319.988C279.484 319.988 278.875 320.133 278.441 320.422C278.027 320.711 277.821 321.114 277.821 321.631C277.821 322.21 278.11 322.654 278.689 322.964C279.267 323.253 280.166 323.553 281.386 323.863C282.626 324.173 283.649 324.493 284.455 324.824C285.261 325.155 285.953 325.671 286.532 326.374C287.131 327.056 287.441 327.965 287.462 329.102C287.462 330.094 287.183 330.983 286.625 331.768C286.087 332.553 285.302 333.173 284.269 333.628C283.256 334.062 282.068 334.279 280.704 334.279ZM292.605 314.78C291.841 314.78 291.2 314.542 290.683 314.067C290.187 313.571 289.939 312.961 289.939 312.238C289.939 311.515 290.187 310.915 290.683 310.44C291.2 309.944 291.841 309.696 292.605 309.696C293.37 309.696 294 309.944 294.496 310.44C295.013 310.915 295.271 311.515 295.271 312.238C295.271 312.961 295.013 313.571 294.496 314.067C294 314.542 293.37 314.78 292.605 314.78ZM294.744 316.826V334H290.404V316.826H294.744ZM304.984 334.279C303.579 334.279 302.318 334.031 301.202 333.535C300.086 333.018 299.198 332.326 298.536 331.458C297.896 330.59 297.544 329.629 297.482 328.575H301.853C301.936 329.236 302.256 329.784 302.814 330.218C303.393 330.652 304.106 330.869 304.953 330.869C305.78 330.869 306.421 330.704 306.875 330.373C307.351 330.042 307.588 329.619 307.588 329.102C307.588 328.544 307.299 328.131 306.72 327.862C306.162 327.573 305.263 327.263 304.023 326.932C302.742 326.622 301.688 326.302 300.861 325.971C300.055 325.64 299.353 325.134 298.753 324.452C298.175 323.77 297.885 322.85 297.885 321.693C297.885 320.742 298.154 319.874 298.691 319.089C299.249 318.304 300.035 317.684 301.047 317.229C302.081 316.774 303.29 316.547 304.674 316.547C306.72 316.547 308.353 317.064 309.572 318.097C310.792 319.11 311.463 320.484 311.587 322.22H307.433C307.371 321.538 307.082 321.001 306.565 320.608C306.069 320.195 305.398 319.988 304.55 319.988C303.765 319.988 303.155 320.133 302.721 320.422C302.308 320.711 302.101 321.114 302.101 321.631C302.101 322.21 302.391 322.654 302.969 322.964C303.548 323.253 304.447 323.553 305.666 323.863C306.906 324.173 307.929 324.493 308.735 324.824C309.541 325.155 310.234 325.671 310.812 326.374C311.412 327.056 311.722 327.965 311.742 329.102C311.742 330.094 311.463 330.983 310.905 331.768C310.368 332.553 309.583 333.173 308.549 333.628C307.537 334.062 306.348 334.279 304.984 334.279Z" fill="black"/>
<path d="M361.887 37.754V47.755H341.009V58.559H356.631V68.268H341.009V89H328.526V37.754H361.887ZM404.656 67.976C404.656 69.144 404.583 70.3607 404.437 71.626H376.186C376.381 74.1567 377.184 76.1033 378.595 77.466C380.055 78.78 381.831 79.437 383.924 79.437C387.039 79.437 389.204 78.123 390.421 75.495H403.707C403.026 78.1717 401.785 80.5807 399.984 82.722C398.232 84.8633 396.018 86.5423 393.341 87.759C390.664 88.9757 387.671 89.584 384.362 89.584C380.371 89.584 376.819 88.7323 373.704 87.029C370.589 85.3257 368.156 82.8923 366.404 79.729C364.652 76.5657 363.776 72.867 363.776 68.633C363.776 64.399 364.628 60.7003 366.331 57.537C368.083 54.3737 370.516 51.9403 373.631 50.237C376.746 48.5337 380.323 47.682 384.362 47.682C388.304 47.682 391.808 48.5093 394.874 50.164C397.94 51.8187 400.325 54.179 402.028 57.245C403.78 60.311 404.656 63.888 404.656 67.976ZM391.881 64.691C391.881 62.5497 391.151 60.8463 389.691 59.581C388.231 58.3157 386.406 57.683 384.216 57.683C382.123 57.683 380.347 58.2913 378.887 59.508C377.476 60.7247 376.6 62.4523 376.259 64.691H391.881ZM406.569 68.56C406.569 64.3747 407.348 60.7003 408.905 57.537C410.511 54.3737 412.677 51.9403 415.402 50.237C418.128 48.5337 421.169 47.682 424.527 47.682C427.399 47.682 429.905 48.266 432.046 49.434C434.236 50.602 435.915 52.135 437.083 54.033V48.266H449.566V89H437.083V83.233C435.867 85.131 434.163 86.664 431.973 87.832C429.832 89 427.326 89.584 424.454 89.584C421.145 89.584 418.128 88.7323 415.402 87.029C412.677 85.277 410.511 82.8193 408.905 79.656C407.348 76.444 406.569 72.7453 406.569 68.56ZM437.083 68.633C437.083 65.5183 436.207 63.0607 434.455 61.26C432.752 59.4593 430.659 58.559 428.177 58.559C425.695 58.559 423.578 59.4593 421.826 61.26C420.123 63.012 419.271 65.4453 419.271 68.56C419.271 71.6747 420.123 74.1567 421.826 76.006C423.578 77.8067 425.695 78.707 428.177 78.707C430.659 78.707 432.752 77.8067 434.455 76.006C436.207 74.2053 437.083 71.7477 437.083 68.633ZM479.11 78.415V89H472.759C468.233 89 464.705 87.905 462.174 85.715C459.644 83.4763 458.378 79.8507 458.378 74.838V58.632H453.414V48.266H458.378V38.338H470.861V48.266H479.037V58.632H470.861V74.984C470.861 76.2007 471.153 77.0767 471.737 77.612C472.321 78.1473 473.295 78.415 474.657 78.415H479.11ZM524.096 48.266V89H511.613V83.452C510.348 85.2527 508.62 86.7127 506.43 87.832C504.289 88.9027 501.904 89.438 499.276 89.438C496.162 89.438 493.412 88.7567 491.027 87.394C488.643 85.9827 486.793 83.963 485.479 81.335C484.165 78.707 483.508 75.6167 483.508 72.064V48.266H495.918V70.385C495.918 73.1103 496.624 75.2273 498.035 76.736C499.447 78.2447 501.345 78.999 503.729 78.999C506.163 78.999 508.085 78.2447 509.496 76.736C510.908 75.2273 511.613 73.1103 511.613 70.385V48.266H524.096ZM543.356 55.055C544.816 52.8163 546.641 51.0643 548.831 49.799C551.021 48.485 553.454 47.828 556.131 47.828V61.041H552.7C549.585 61.041 547.249 61.7223 545.692 63.085C544.135 64.399 543.356 66.735 543.356 70.093V89H530.873V48.266H543.356V55.055ZM598.305 67.976C598.305 69.144 598.232 70.3607 598.086 71.626H569.835C570.03 74.1567 570.833 76.1033 572.244 77.466C573.704 78.78 575.481 79.437 577.573 79.437C580.688 79.437 582.854 78.123 584.07 75.495H597.356C596.675 78.1717 595.434 80.5807 593.633 82.722C591.881 84.8633 589.667 86.5423 586.99 87.759C584.314 88.9757 581.321 89.584 578.011 89.584C574.021 89.584 570.468 88.7323 567.353 87.029C564.239 85.3257 561.805 82.8923 560.053 79.729C558.301 76.5657 557.425 72.867 557.425 68.633C557.425 64.399 558.277 60.7003 559.98 57.537C561.732 54.3737 564.166 51.9403 567.28 50.237C570.395 48.5337 573.972 47.682 578.011 47.682C581.953 47.682 585.457 48.5093 588.523 50.164C591.589 51.8187 593.974 54.179 595.677 57.245C597.429 60.311 598.305 63.888 598.305 67.976ZM585.53 64.691C585.53 62.5497 584.8 60.8463 583.34 59.581C581.88 58.3157 580.055 57.683 577.865 57.683C575.773 57.683 573.996 58.2913 572.536 59.508C571.125 60.7247 570.249 62.4523 569.908 64.691H585.53ZM619.272 89.584C615.719 89.584 612.556 88.9757 609.782 87.759C607.008 86.5423 604.818 84.8877 603.212 82.795C601.606 80.6537 600.706 78.269 600.511 75.641H612.848C612.994 77.0523 613.651 78.196 614.819 79.072C615.987 79.948 617.423 80.386 619.126 80.386C620.683 80.386 621.876 80.094 622.703 79.51C623.579 78.8773 624.017 78.0743 624.017 77.101C624.017 75.933 623.409 75.0813 622.192 74.546C620.975 73.962 619.004 73.3293 616.279 72.648C613.359 71.9667 610.926 71.261 608.979 70.531C607.032 69.7523 605.353 68.56 603.942 66.954C602.531 65.2993 601.825 63.085 601.825 60.311C601.825 57.975 602.458 55.858 603.723 53.96C605.037 52.0133 606.935 50.4803 609.417 49.361C611.948 48.2417 614.941 47.682 618.396 47.682C623.506 47.682 627.521 48.9473 630.441 51.478C633.41 54.0087 635.113 57.3667 635.551 61.552H624.017C623.822 60.1407 623.19 59.0213 622.119 58.194C621.097 57.3667 619.734 56.953 618.031 56.953C616.571 56.953 615.452 57.245 614.673 57.829C613.894 58.3643 613.505 59.1187 613.505 60.092C613.505 61.26 614.113 62.136 615.33 62.72C616.595 63.304 618.542 63.888 621.17 64.472C624.187 65.2507 626.645 66.0293 628.543 66.808C630.441 67.538 632.096 68.7547 633.507 70.458C634.967 72.1127 635.721 74.3513 635.77 77.174C635.77 79.5587 635.089 81.7 633.726 83.598C632.412 85.4473 630.49 86.9073 627.959 87.978C625.477 89.0487 622.581 89.584 619.272 89.584Z" fill="url(#paint0_linear_60_2)"/>
<path d="M440.56 8.02L436.6 22H435.04L431.52 10.08L427.92 22L426.4 22.02L422.52 8.02H424.02L427.22 20.28L430.8 8.02H432.36L435.84 20.28L439.06 8.02H440.56ZM447.482 22.16C446.455 22.16 445.528 21.9333 444.702 21.48C443.888 21.0133 443.242 20.36 442.762 19.52C442.295 18.6667 442.062 17.6733 442.062 16.54C442.062 15.4067 442.302 14.42 442.782 13.58C443.262 12.7267 443.915 12.0733 444.742 11.62C445.568 11.1533 446.495 10.92 447.522 10.92C448.548 10.92 449.475 11.1533 450.302 11.62C451.142 12.0733 451.795 12.7267 452.262 13.58C452.742 14.42 452.982 15.4067 452.982 16.54C452.982 17.66 452.742 18.6467 452.262 19.5C451.782 20.3533 451.122 21.0133 450.282 21.48C449.442 21.9333 448.508 22.16 447.482 22.16ZM447.482 20.94C448.202 20.94 448.868 20.78 449.482 20.46C450.095 20.1267 450.588 19.6333 450.962 18.98C451.348 18.3133 451.542 17.5 451.542 16.54C451.542 15.58 451.355 14.7733 450.982 14.12C450.608 13.4533 450.115 12.96 449.502 12.64C448.888 12.3067 448.222 12.14 447.502 12.14C446.782 12.14 446.115 12.3067 445.502 12.64C444.888 12.96 444.395 13.4533 444.022 14.12C443.662 14.7733 443.482 15.58 443.482 16.54C443.482 17.5 443.662 18.3133 444.022 18.98C444.395 19.6333 444.882 20.1267 445.482 20.46C446.095 20.78 446.762 20.94 447.482 20.94ZM456.934 13.02C457.24 12.34 457.707 11.8133 458.334 11.44C458.974 11.0667 459.754 10.88 460.674 10.88V12.34H460.294C459.28 12.34 458.467 12.6133 457.854 13.16C457.24 13.7067 456.934 14.62 456.934 15.9V22H455.534V11.08H456.934V13.02ZM464.18 7.2V22H462.78V7.2H464.18ZM466.71 16.52C466.71 15.4 466.937 14.42 467.39 13.58C467.843 12.7267 468.463 12.0733 469.25 11.62C470.05 11.1533 470.95 10.92 471.95 10.92C472.91 10.92 473.777 11.1533 474.55 11.62C475.323 12.0867 475.89 12.6933 476.25 13.44V7.2H477.65V22H476.25V19.56C475.917 20.32 475.37 20.9467 474.61 21.44C473.85 21.92 472.957 22.16 471.93 22.16C470.93 22.16 470.03 21.9267 469.23 21.46C468.443 20.9933 467.823 20.3333 467.37 19.48C466.93 18.6267 466.71 17.64 466.71 16.52ZM476.25 16.54C476.25 15.66 476.07 14.8867 475.71 14.22C475.35 13.5533 474.857 13.04 474.23 12.68C473.617 12.32 472.937 12.14 472.19 12.14C471.417 12.14 470.723 12.3133 470.11 12.66C469.497 13.0067 469.01 13.5133 468.65 14.18C468.303 14.8333 468.13 15.6133 468.13 16.52C468.13 17.4133 468.303 18.2 468.65 18.88C469.01 19.5467 469.497 20.06 470.11 20.42C470.723 20.7667 471.417 20.94 472.19 20.94C472.937 20.94 473.617 20.76 474.23 20.4C474.857 20.04 475.35 19.5267 475.71 18.86C476.07 18.1933 476.25 17.42 476.25 16.54ZM487.626 14V15.18H479.846V14H487.626ZM490.577 16.54C490.577 15.4067 490.804 14.42 491.257 13.58C491.711 12.7267 492.337 12.0733 493.137 11.62C493.937 11.1533 494.851 10.92 495.877 10.92C497.224 10.92 498.331 11.2533 499.197 11.92C500.077 12.5867 500.644 13.4933 500.897 14.64H499.397C499.211 13.8533 498.804 13.24 498.177 12.8C497.564 12.3467 496.797 12.12 495.877 12.12C495.144 12.12 494.484 12.2867 493.897 12.62C493.311 12.9533 492.844 13.4533 492.497 14.12C492.164 14.7733 491.997 15.58 491.997 16.54C491.997 17.5 492.164 18.3133 492.497 18.98C492.844 19.6467 493.311 20.1467 493.897 20.48C494.484 20.8133 495.144 20.98 495.877 20.98C496.797 20.98 497.564 20.76 498.177 20.32C498.804 19.8667 499.211 19.24 499.397 18.44H500.897C500.644 19.56 500.077 20.46 499.197 21.14C498.317 21.82 497.211 22.16 495.877 22.16C494.851 22.16 493.937 21.9333 493.137 21.48C492.337 21.0133 491.711 20.36 491.257 19.52C490.804 18.6667 490.577 17.6733 490.577 16.54ZM504.883 7.2V22H503.483V7.2H504.883ZM507.413 16.52C507.413 15.4 507.633 14.42 508.073 13.58C508.526 12.7267 509.146 12.0733 509.933 11.62C510.733 11.1533 511.633 10.92 512.633 10.92C513.673 10.92 514.566 11.16 515.313 11.64C516.073 12.12 516.62 12.7333 516.953 13.48V11.08H518.353V22H516.953V19.58C516.606 20.3267 516.053 20.9467 515.293 21.44C514.546 21.92 513.653 22.16 512.613 22.16C511.626 22.16 510.733 21.9267 509.933 21.46C509.146 20.9933 508.526 20.3333 508.073 19.48C507.633 18.6267 507.413 17.64 507.413 16.52ZM516.953 16.54C516.953 15.66 516.773 14.8867 516.413 14.22C516.053 13.5533 515.56 13.04 514.933 12.68C514.32 12.32 513.64 12.14 512.893 12.14C512.12 12.14 511.426 12.3133 510.813 12.66C510.2 13.0067 509.713 13.5133 509.353 14.18C509.006 14.8333 508.833 15.6133 508.833 16.52C508.833 17.4133 509.006 18.2 509.353 18.88C509.713 19.5467 510.2 20.06 510.813 20.42C511.426 20.7667 512.12 20.94 512.893 20.94C513.64 20.94 514.32 20.76 514.933 20.4C515.56 20.04 516.053 19.5267 516.413 18.86C516.773 18.1933 516.953 17.42 516.953 16.54ZM525.309 22.16C524.056 22.16 523.029 21.8733 522.229 21.3C521.443 20.7133 521.003 19.92 520.909 18.92H522.349C522.416 19.5333 522.703 20.0333 523.209 20.42C523.729 20.7933 524.423 20.98 525.289 20.98C526.049 20.98 526.643 20.8 527.069 20.44C527.509 20.08 527.729 19.6333 527.729 19.1C527.729 18.7267 527.609 18.42 527.369 18.18C527.129 17.94 526.823 17.7533 526.449 17.62C526.089 17.4733 525.596 17.32 524.969 17.16C524.156 16.9467 523.496 16.7333 522.989 16.52C522.483 16.3067 522.049 15.9933 521.689 15.58C521.343 15.1533 521.169 14.5867 521.169 13.88C521.169 13.3467 521.329 12.8533 521.649 12.4C521.969 11.9467 522.423 11.5867 523.009 11.32C523.596 11.0533 524.263 10.92 525.009 10.92C526.183 10.92 527.129 11.22 527.849 11.82C528.569 12.4067 528.956 13.22 529.009 14.26H527.609C527.569 13.62 527.316 13.1067 526.849 12.72C526.396 12.32 525.769 12.12 524.969 12.12C524.263 12.12 523.689 12.2867 523.249 12.62C522.809 12.9533 522.589 13.3667 522.589 13.86C522.589 14.2867 522.716 14.64 522.969 14.92C523.236 15.1867 523.563 15.4 523.949 15.56C524.336 15.7067 524.856 15.8733 525.509 16.06C526.296 16.2733 526.923 16.48 527.389 16.68C527.856 16.88 528.256 17.1733 528.589 17.56C528.923 17.9467 529.096 18.46 529.109 19.1C529.109 19.6867 528.949 20.2133 528.629 20.68C528.309 21.1333 527.863 21.4933 527.289 21.76C526.716 22.0267 526.056 22.16 525.309 22.16ZM535.505 22.16C534.251 22.16 533.225 21.8733 532.425 21.3C531.638 20.7133 531.198 19.92 531.105 18.92H532.545C532.611 19.5333 532.898 20.0333 533.405 20.42C533.925 20.7933 534.618 20.98 535.485 20.98C536.245 20.98 536.838 20.8 537.265 20.44C537.705 20.08 537.925 19.6333 537.925 19.1C537.925 18.7267 537.805 18.42 537.565 18.18C537.325 17.94 537.018 17.7533 536.645 17.62C536.285 17.4733 535.791 17.32 535.165 17.16C534.351 16.9467 533.691 16.7333 533.185 16.52C532.678 16.3067 532.245 15.9933 531.885 15.58C531.538 15.1533 531.365 14.5867 531.365 13.88C531.365 13.3467 531.525 12.8533 531.845 12.4C532.165 11.9467 532.618 11.5867 533.205 11.32C533.791 11.0533 534.458 10.92 535.205 10.92C536.378 10.92 537.325 11.22 538.045 11.82C538.765 12.4067 539.151 13.22 539.205 14.26H537.805C537.765 13.62 537.511 13.1067 537.045 12.72C536.591 12.32 535.965 12.12 535.165 12.12C534.458 12.12 533.885 12.2867 533.445 12.62C533.005 12.9533 532.785 13.3667 532.785 13.86C532.785 14.2867 532.911 14.64 533.165 14.92C533.431 15.1867 533.758 15.4 534.145 15.56C534.531 15.7067 535.051 15.8733 535.705 16.06C536.491 16.2733 537.118 16.48 537.585 16.68C538.051 16.88 538.451 17.1733 538.785 17.56C539.118 17.9467 539.291 18.46 539.305 19.1C539.305 19.6867 539.145 20.2133 538.825 20.68C538.505 21.1333 538.058 21.4933 537.485 21.76C536.911 22.0267 536.251 22.16 535.505 22.16Z" fill="#6D6D6D"/>
<defs>
<linearGradient id="paint0_linear_60_2" x1="448.493" y1="35.8313" x2="460.222" y2="180.146" gradientUnits="userSpaceOnUse">
<stop/>
<stop offset="1" stop-opacity="0"/>
</linearGradient>
</defs>
</svg>
