<svg width="214" height="65" viewBox="0 0 214 65" fill="none" xmlns="http://www.w3.org/2000/svg">
<path d="M12.814 48.301C10.836 48.301 9.05867 47.957 7.482 47.269C5.934 46.5523 4.71567 45.5777 3.827 44.345C2.93833 43.0837 2.47967 41.636 2.451 40.002H6.622C6.76533 41.4067 7.33867 42.5963 8.342 43.571C9.374 44.517 10.8647 44.99 12.814 44.99C14.6773 44.99 16.1393 44.5313 17.2 43.614C18.2893 42.668 18.834 41.464 18.834 40.002C18.834 38.8553 18.5187 37.9237 17.888 37.207C17.2573 36.4903 16.469 35.9457 15.523 35.573C14.577 35.2003 13.3013 34.799 11.696 34.369C9.718 33.853 8.127 33.337 6.923 32.821C5.74767 32.305 4.73 31.5023 3.87 30.413C3.03867 29.295 2.623 27.8043 2.623 25.941C2.623 24.307 3.03867 22.8593 3.87 21.598C4.70133 20.3367 5.86233 19.362 7.353 18.674C8.87233 17.986 10.6067 17.642 12.556 17.642C15.3653 17.642 17.6587 18.3443 19.436 19.749C21.242 21.1537 22.2597 23.017 22.489 25.339H18.189C18.0457 24.1923 17.4437 23.189 16.383 22.329C15.3223 21.4403 13.9177 20.996 12.169 20.996C10.535 20.996 9.202 21.426 8.17 22.286C7.138 23.1173 6.622 24.2927 6.622 25.812C6.622 26.9013 6.923 27.79 7.525 28.478C8.15567 29.166 8.91533 29.6963 9.804 30.069C10.7213 30.413 11.997 30.8143 13.631 31.273C15.609 31.8177 17.2 32.3623 18.404 32.907C19.608 33.423 20.64 34.24 21.5 35.358C22.36 36.4473 22.79 37.938 22.79 39.83C22.79 41.292 22.403 42.668 21.629 43.958C20.855 45.248 19.7083 46.2943 18.189 47.097C16.6697 47.8997 14.878 48.301 12.814 48.301ZM23.8613 36.175C23.8613 33.7383 24.3486 31.617 25.3233 29.811C26.298 27.9763 27.6453 26.5573 29.3653 25.554C31.114 24.5507 33.1063 24.049 35.3423 24.049C38.2376 24.049 40.617 24.7513 42.4803 26.156C44.3723 27.5607 45.6193 29.51 46.2213 32.004H42.0073C41.606 30.5707 40.8176 29.4383 39.6423 28.607C38.4956 27.7757 37.0623 27.36 35.3423 27.36C33.1063 27.36 31.3003 28.134 29.9243 29.682C28.5483 31.2013 27.8603 33.3657 27.8603 36.175C27.8603 39.013 28.5483 41.206 29.9243 42.754C31.3003 44.302 33.1063 45.076 35.3423 45.076C37.0623 45.076 38.4956 44.6747 39.6423 43.872C40.789 43.0693 41.5773 41.9227 42.0073 40.432H46.2213C45.5906 42.84 44.3293 44.775 42.4373 46.237C40.5453 47.6703 38.1803 48.387 35.3423 48.387C33.1063 48.387 31.114 47.8853 29.3653 46.882C27.6453 45.8787 26.298 44.4597 25.3233 42.625C24.3486 40.7903 23.8613 38.6403 23.8613 36.175ZM46.7554 36.132C46.7554 33.724 47.2428 31.617 48.2174 29.811C49.1921 27.9763 50.5251 26.5573 52.2164 25.554C53.9364 24.5507 55.8428 24.049 57.9354 24.049C59.9994 24.049 61.7911 24.4933 63.3104 25.382C64.8298 26.2707 65.9621 27.3887 66.7074 28.736V24.436H70.6634V48H66.7074V43.614C65.9334 44.99 64.7724 46.1367 63.2244 47.054C61.7051 47.9427 59.9278 48.387 57.8924 48.387C55.7998 48.387 53.9078 47.871 52.2164 46.839C50.5251 45.807 49.1921 44.3593 48.2174 42.496C47.2428 40.6327 46.7554 38.5113 46.7554 36.132ZM66.7074 36.175C66.7074 34.3977 66.3491 32.8497 65.6324 31.531C64.9158 30.2123 63.9411 29.209 62.7084 28.521C61.5044 27.8043 60.1714 27.446 58.7094 27.446C57.2474 27.446 55.9144 27.79 54.7104 28.478C53.5064 29.166 52.5461 30.1693 51.8294 31.488C51.1128 32.8067 50.7544 34.3547 50.7544 36.132C50.7544 37.938 51.1128 39.5147 51.8294 40.862C52.5461 42.1807 53.5064 43.1983 54.7104 43.915C55.9144 44.603 57.2474 44.947 58.7094 44.947C60.1714 44.947 61.5044 44.603 62.7084 43.915C63.9411 43.1983 64.9158 42.1807 65.6324 40.862C66.3491 39.5147 66.7074 37.9523 66.7074 36.175ZM85.532 24.006C88.3987 24.006 90.7207 24.8803 92.498 26.629C94.2754 28.349 95.164 30.843 95.164 34.111V48H91.294V34.67C91.294 32.3193 90.7064 30.5277 89.531 29.295C88.3557 28.0337 86.7504 27.403 84.715 27.403C82.651 27.403 81.0027 28.048 79.77 29.338C78.566 30.628 77.964 32.5057 77.964 34.971V48H74.051V24.436H77.964V27.79C78.738 26.586 79.7844 25.6543 81.103 24.995C82.4504 24.3357 83.9267 24.006 85.532 24.006ZM114.112 48L106.974 35.745H102.244V48H98.3309V18.029H108.006C110.271 18.029 112.177 18.416 113.725 19.19C115.302 19.964 116.477 21.0103 117.251 22.329C118.025 23.6477 118.412 25.1527 118.412 26.844C118.412 28.908 117.81 30.7283 116.606 32.305C115.431 33.8817 113.653 34.928 111.274 35.444L118.799 48H114.112ZM102.244 32.606H108.006C110.127 32.606 111.718 32.09 112.779 31.058C113.84 29.9973 114.37 28.5927 114.37 26.844C114.37 25.0667 113.84 23.6907 112.779 22.716C111.747 21.7413 110.156 21.254 108.006 21.254H102.244V32.606ZM125.18 21.211V31.23H136.102V34.455H125.18V44.775H137.392V48H121.267V17.986H137.392V21.211H125.18Z" fill="black"/>
<path d="M147.66 17L145.17 12.725H143.52V17H142.155V6.545H145.53C146.32 6.545 146.985 6.68 147.525 6.95C148.075 7.22 148.485 7.585 148.755 8.045C149.025 8.505 149.16 9.03 149.16 9.62C149.16 10.34 148.95 10.975 148.53 11.525C148.12 12.075 147.5 12.44 146.67 12.62L149.295 17H147.66ZM143.52 11.63H145.53C146.27 11.63 146.825 11.45 147.195 11.09C147.565 10.72 147.75 10.23 147.75 9.62C147.75 9 147.565 8.52 147.195 8.18C146.835 7.84 146.28 7.67 145.53 7.67H143.52V11.63ZM157.656 12.575C157.656 12.835 157.641 13.11 157.611 13.4H151.041C151.091 14.21 151.366 14.845 151.866 15.305C152.376 15.755 152.991 15.98 153.711 15.98C154.301 15.98 154.791 15.845 155.181 15.575C155.581 15.295 155.861 14.925 156.021 14.465H157.491C157.271 15.255 156.831 15.9 156.171 16.4C155.511 16.89 154.691 17.135 153.711 17.135C152.931 17.135 152.231 16.96 151.611 16.61C151.001 16.26 150.521 15.765 150.171 15.125C149.821 14.475 149.646 13.725 149.646 12.875C149.646 12.025 149.816 11.28 150.156 10.64C150.496 10 150.971 9.51 151.581 9.17C152.201 8.82 152.911 8.645 153.711 8.645C154.491 8.645 155.181 8.815 155.781 9.155C156.381 9.495 156.841 9.965 157.161 10.565C157.491 11.155 157.656 11.825 157.656 12.575ZM156.246 12.29C156.246 11.77 156.131 11.325 155.901 10.955C155.671 10.575 155.356 10.29 154.956 10.1C154.566 9.9 154.131 9.8 153.651 9.8C152.961 9.8 152.371 10.02 151.881 10.46C151.401 10.9 151.126 11.51 151.056 12.29H156.246ZM161.723 8.645C162.433 8.645 163.053 8.8 163.583 9.11C164.123 9.42 164.523 9.81 164.783 10.28V8.78H166.163V17.18C166.163 17.93 166.003 18.595 165.683 19.175C165.363 19.765 164.903 20.225 164.303 20.555C163.713 20.885 163.023 21.05 162.233 21.05C161.153 21.05 160.253 20.795 159.533 20.285C158.813 19.775 158.388 19.08 158.258 18.2H159.608C159.758 18.7 160.068 19.1 160.538 19.4C161.008 19.71 161.573 19.865 162.233 19.865C162.983 19.865 163.593 19.63 164.063 19.16C164.543 18.69 164.783 18.03 164.783 17.18V15.455C164.513 15.935 164.113 16.335 163.583 16.655C163.053 16.975 162.433 17.135 161.723 17.135C160.993 17.135 160.328 16.955 159.728 16.595C159.138 16.235 158.673 15.73 158.333 15.08C157.993 14.43 157.823 13.69 157.823 12.86C157.823 12.02 157.993 11.285 158.333 10.655C158.673 10.015 159.138 9.52 159.728 9.17C160.328 8.82 160.993 8.645 161.723 8.645ZM164.783 12.875C164.783 12.255 164.658 11.715 164.408 11.255C164.158 10.795 163.818 10.445 163.388 10.205C162.968 9.955 162.503 9.83 161.993 9.83C161.483 9.83 161.018 9.95 160.598 10.19C160.178 10.43 159.843 10.78 159.593 11.24C159.343 11.7 159.218 12.24 159.218 12.86C159.218 13.49 159.343 14.04 159.593 14.51C159.843 14.97 160.178 15.325 160.598 15.575C161.018 15.815 161.483 15.935 161.993 15.935C162.503 15.935 162.968 15.815 163.388 15.575C163.818 15.325 164.158 14.97 164.408 14.51C164.658 14.04 164.783 13.495 164.783 12.875ZM174.634 8.78V17H173.269V15.785C173.009 16.205 172.644 16.535 172.174 16.775C171.714 17.005 171.204 17.12 170.644 17.12C170.004 17.12 169.429 16.99 168.919 16.73C168.409 16.46 168.004 16.06 167.704 15.53C167.414 15 167.269 14.355 167.269 13.595V8.78H168.619V13.415C168.619 14.225 168.824 14.85 169.234 15.29C169.644 15.72 170.204 15.935 170.914 15.935C171.644 15.935 172.219 15.71 172.639 15.26C173.059 14.81 173.269 14.155 173.269 13.295V8.78H174.634ZM177.179 5.9V17H175.814V5.9H177.179ZM177.871 12.86C177.871 12.02 178.041 11.285 178.381 10.655C178.721 10.015 179.186 9.52 179.776 9.17C180.376 8.82 181.041 8.645 181.771 8.645C182.491 8.645 183.116 8.8 183.646 9.11C184.176 9.42 184.571 9.81 184.831 10.28V8.78H186.211V17H184.831V15.47C184.561 15.95 184.156 16.35 183.616 16.67C183.086 16.98 182.466 17.135 181.756 17.135C181.026 17.135 180.366 16.955 179.776 16.595C179.186 16.235 178.721 15.73 178.381 15.08C178.041 14.43 177.871 13.69 177.871 12.86ZM184.831 12.875C184.831 12.255 184.706 11.715 184.456 11.255C184.206 10.795 183.866 10.445 183.436 10.205C183.016 9.955 182.551 9.83 182.041 9.83C181.531 9.83 181.066 9.95 180.646 10.19C180.226 10.43 179.891 10.78 179.641 11.24C179.391 11.7 179.266 12.24 179.266 12.86C179.266 13.49 179.391 14.04 179.641 14.51C179.891 14.97 180.226 15.325 180.646 15.575C181.066 15.815 181.531 15.935 182.041 15.935C182.551 15.935 183.016 15.815 183.436 15.575C183.866 15.325 184.206 14.97 184.456 14.51C184.706 14.04 184.831 13.495 184.831 12.875ZM188.757 10.115C188.997 9.645 189.337 9.28 189.777 9.02C190.227 8.76 190.772 8.63 191.412 8.63V10.04H191.052C189.522 10.04 188.757 10.87 188.757 12.53V17H187.392V8.78H188.757V10.115ZM193.228 7.655V11.15H197.038V12.275H193.228V15.875H197.488V17H191.863V6.53H197.488V7.655H193.228ZM202.718 17L200.768 13.94L198.893 17H197.468L200.123 12.92L197.468 8.78H199.013L200.963 11.825L202.823 8.78H204.248L201.608 12.845L204.263 17H202.718ZM205.846 10.295C206.116 9.825 206.516 9.435 207.046 9.125C207.586 8.805 208.211 8.645 208.921 8.645C209.651 8.645 210.311 8.82 210.901 9.17C211.501 9.52 211.971 10.015 212.311 10.655C212.651 11.285 212.821 12.02 212.821 12.86C212.821 13.69 212.651 14.43 212.311 15.08C211.971 15.73 211.501 16.235 210.901 16.595C210.311 16.955 209.651 17.135 208.921 17.135C208.221 17.135 207.601 16.98 207.061 16.67C206.531 16.35 206.126 15.955 205.846 15.485V20.9H204.481V8.78H205.846V10.295ZM211.426 12.86C211.426 12.24 211.301 11.7 211.051 11.24C210.801 10.78 210.461 10.43 210.031 10.19C209.611 9.95 209.146 9.83 208.636 9.83C208.136 9.83 207.671 9.955 207.241 10.205C206.821 10.445 206.481 10.8 206.221 11.27C205.971 11.73 205.846 12.265 205.846 12.875C205.846 13.495 205.971 14.04 206.221 14.51C206.481 14.97 206.821 15.325 207.241 15.575C207.671 15.815 208.136 15.935 208.636 15.935C209.146 15.935 209.611 15.815 210.031 15.575C210.461 15.325 210.801 14.97 211.051 14.51C211.301 14.04 211.426 13.49 211.426 12.86Z" fill="black"/>
</svg>
